<?xml version="1.0" encoding="UTF-8"?>
<svg xmlns="http://www.w3.org/2000/svg" width="832" height="606" viewBox="0 0 832 606" style="max-width: 832px; width: 100%; height: auto;" role="img">
  <rect width="100%" height="100%" rx="14" fill="#0a0810"/>
  <rect x="0.5" y="0.5" width="831" height="605" rx="14" fill="none" stroke="#2d2b31" stroke-width="1"/>
  <text x="416" y="23" text-anchor="middle" font-family='ui-monospace, "Cascadia Mono", "SF Mono", Menlo, Consolas, "DejaVu Sans Mono", monospace' font-size="13" fill="#8a8a8a">NinjaBits</text>
  <g font-family='ui-monospace, "Cascadia Mono", "SF Mono", Menlo, Consolas, "DejaVu Sans Mono", monospace' font-size="16" fill="#ddd8ea">
    <rect x="41.6" y="79" width="9.6" height="11" fill="#0052ff"/>
    <rect x="51.2" y="79" width="9.6" height="11" fill="#0255ff"/>
    <rect x="60.8" y="79" width="9.6" height="11" fill="#0458ff"/>
    <rect x="89.6" y="79" width="9.6" height="11" fill="#0b60ff"/>
    <rect x="99.2" y="79" width="9.6" height="11" fill="#0d63ff"/>
    <rect x="108.8" y="79" width="9.6" height="11" fill="#0f66ff"/>
    <rect x="128" y="79" width="9.6" height="11" fill="#136cff"/>
    <rect x="137.6" y="79" width="9.6" height="11" fill="#156fff"/>
    <rect x="147.2" y="79" width="9.6" height="11" fill="#1771ff"/>
    <rect x="166.4" y="79" width="9.6" height="11" fill="#1c77ff"/>
    <rect x="176" y="79" width="9.6" height="11" fill="#1e7aff"/>
    <rect x="185.6" y="79" width="9.6" height="11" fill="#207dff"/>
    <rect x="214.4" y="79" width="9.6" height="11" fill="#2685ff"/>
    <rect x="224" y="79" width="9.6" height="11" fill="#2888ff"/>
    <rect x="233.6" y="79" width="9.6" height="11" fill="#2a8bff"/>
    <rect x="272" y="79" width="9.6" height="11" fill="#3a98ff"/>
    <rect x="281.6" y="79" width="9.6" height="11" fill="#409bff"/>
    <rect x="291.2" y="79" width="9.6" height="11" fill="#459fff"/>
    <rect x="310.4" y="79" width="9.6" height="11" fill="#50a6ff"/>
    <rect x="320" y="79" width="9.6" height="11" fill="#55a9ff"/>
    <rect x="329.6" y="79" width="9.6" height="11" fill="#5aadff"/>
    <rect x="339.2" y="79" width="9.6" height="11" fill="#60b0ff"/>
    <rect x="348.8" y="79" width="9.6" height="11" fill="#65b4ff"/>
    <rect x="358.4" y="79" width="9.6" height="11" fill="#6ab7ff"/>
    <rect x="368" y="79" width="9.6" height="11" fill="#70bbff"/>
    <rect x="387.2" y="79" width="9.6" height="11" fill="#7ac2ff"/>
    <rect x="396.8" y="79" width="9.6" height="11" fill="#80c5ff"/>
    <rect x="406.4" y="79" width="9.6" height="11" fill="#85c9ff"/>
    <rect x="416" y="79" width="9.6" height="11" fill="#8accff"/>
    <rect x="425.6" y="79" width="9.6" height="11" fill="#8fd0ff"/>
    <rect x="435.2" y="79" width="9.6" height="11" fill="#95d3ff"/>
    <rect x="464" y="79" width="9.6" height="11" fill="#a4dbff"/>
    <rect x="473.6" y="79" width="9.6" height="11" fill="#a9ddff"/>
    <rect x="483.2" y="79" width="9.6" height="11" fill="#aedfff"/>
    <rect x="502.4" y="79" width="9.6" height="11" fill="#b8e3ff"/>
    <rect x="512" y="79" width="9.6" height="11" fill="#bde5ff"/>
    <rect x="521.6" y="79" width="9.6" height="11" fill="#c3e7ff"/>
    <rect x="531.2" y="79" width="9.6" height="11" fill="#c8e9ff"/>
    <rect x="540.8" y="79" width="9.6" height="11" fill="#cdebff"/>
    <rect x="550.4" y="79" width="9.6" height="11" fill="#d2edff"/>
    <rect x="560" y="79" width="9.6" height="11" fill="#d7efff"/>
    <rect x="579.2" y="79" width="9.6" height="11" fill="#e1f3ff"/>
    <rect x="588.8" y="79" width="9.6" height="11" fill="#e6f5ff"/>
    <rect x="598.4" y="79" width="9.6" height="11" fill="#ebf7ff"/>
    <rect x="608" y="79" width="9.6" height="11" fill="#f0f9ff"/>
    <rect x="617.6" y="79" width="9.6" height="11" fill="#f5fbff"/>
    <rect x="627.2" y="79" width="9.6" height="11" fill="#fafdff"/>
    <rect x="636.8" y="79" width="9.6" height="11" fill="#ffffff"/>
    <rect x="41.6" y="90" width="9.6" height="22" fill="#0052ff"/>
    <rect x="51.2" y="90" width="9.6" height="22" fill="#0255ff"/>
    <rect x="60.8" y="90" width="9.6" height="22" fill="#0458ff"/>
    <rect x="70.4" y="90" width="9.6" height="22" fill="#065bff"/>
    <rect x="80" y="101" width="9.6" height="11" fill="#085dff"/>
    <rect x="89.6" y="90" width="9.6" height="22" fill="#0b60ff"/>
    <rect x="99.2" y="90" width="9.6" height="22" fill="#0d63ff"/>
    <rect x="108.8" y="90" width="9.6" height="22" fill="#0f66ff"/>
    <rect x="128" y="90" width="9.6" height="22" fill="#136cff"/>
    <rect x="137.6" y="90" width="9.6" height="22" fill="#156fff"/>
    <rect x="147.2" y="90" width="9.6" height="22" fill="#1771ff"/>
    <rect x="166.4" y="90" width="9.6" height="22" fill="#1c77ff"/>
    <rect x="176" y="90" width="9.6" height="22" fill="#1e7aff"/>
    <rect x="185.6" y="90" width="9.6" height="22" fill="#207dff"/>
    <rect x="195.2" y="90" width="9.6" height="22" fill="#2280ff"/>
    <rect x="204.8" y="101" width="9.6" height="11" fill="#2483ff"/>
    <rect x="214.4" y="90" width="9.6" height="22" fill="#2685ff"/>
    <rect x="224" y="90" width="9.6" height="22" fill="#2888ff"/>
    <rect x="233.6" y="90" width="9.6" height="22" fill="#2a8bff"/>
    <rect x="272" y="90" width="9.6" height="22" fill="#3a98ff"/>
    <rect x="281.6" y="90" width="9.6" height="22" fill="#409bff"/>
    <rect x="291.2" y="90" width="9.6" height="22" fill="#459fff"/>
    <rect x="310.4" y="90" width="9.6" height="22" fill="#50a6ff"/>
    <rect x="320" y="90" width="9.6" height="22" fill="#55a9ff"/>
    <rect x="329.6" y="90" width="9.6" height="22" fill="#5aadff"/>
    <rect x="348.8" y="90" width="9.6" height="22" fill="#65b4ff"/>
    <rect x="358.4" y="90" width="9.6" height="22" fill="#6ab7ff"/>
    <rect x="368" y="90" width="9.6" height="22" fill="#70bbff"/>
    <rect x="387.2" y="90" width="9.6" height="22" fill="#7ac2ff"/>
    <rect x="396.8" y="90" width="9.6" height="22" fill="#80c5ff"/>
    <rect x="406.4" y="90" width="9.6" height="22" fill="#85c9ff"/>
    <rect x="425.6" y="90" width="9.6" height="22" fill="#8fd0ff"/>
    <rect x="435.2" y="90" width="9.6" height="22" fill="#95d3ff"/>
    <rect x="444.8" y="90" width="9.6" height="22" fill="#9ad6ff"/>
    <rect x="464" y="90" width="9.6" height="22" fill="#a4dbff"/>
    <rect x="473.6" y="90" width="9.6" height="22" fill="#a9ddff"/>
    <rect x="483.2" y="90" width="9.6" height="22" fill="#aedfff"/>
    <rect x="521.6" y="90" width="9.6" height="22" fill="#c3e7ff"/>
    <rect x="531.2" y="90" width="9.6" height="22" fill="#c8e9ff"/>
    <rect x="540.8" y="90" width="9.6" height="22" fill="#cdebff"/>
    <rect x="579.2" y="90" width="9.6" height="22" fill="#e1f3ff"/>
    <rect x="588.8" y="90" width="9.6" height="22" fill="#e6f5ff"/>
    <rect x="598.4" y="90" width="9.6" height="22" fill="#ebf7ff"/>
    <rect x="608" y="101" width="9.6" height="11" fill="#f0f9ff"/>
    <rect x="617.6" y="101" width="9.6" height="11" fill="#f5fbff"/>
    <rect x="627.2" y="101" width="9.6" height="11" fill="#fafdff"/>
    <rect x="636.8" y="101" width="9.6" height="11" fill="#ffffff"/>
    <text x="41.6" y="128" textLength="9.6" lengthAdjust="spacingAndGlyphs" xml:space="preserve" fill="#0052ff" font-weight="600">▓</text>
    <text x="51.2" y="128" textLength="9.6" lengthAdjust="spacingAndGlyphs" xml:space="preserve" fill="#0255ff" font-weight="600">▓</text>
    <text x="60.8" y="128" textLength="9.6" lengthAdjust="spacingAndGlyphs" xml:space="preserve" fill="#0458ff" font-weight="600">▓</text>
    <rect x="80" y="112" width="9.6" height="11" fill="#085dff"/>
    <text x="89.6" y="128" textLength="9.6" lengthAdjust="spacingAndGlyphs" xml:space="preserve" fill="#0b60ff" font-weight="600">▓</text>
    <text x="99.2" y="128" textLength="9.6" lengthAdjust="spacingAndGlyphs" xml:space="preserve" fill="#0d63ff" font-weight="600">▓</text>
    <text x="108.8" y="128" textLength="9.6" lengthAdjust="spacingAndGlyphs" xml:space="preserve" fill="#0f66ff" font-weight="600">▓</text>
    <text x="128" y="128" textLength="9.6" lengthAdjust="spacingAndGlyphs" xml:space="preserve" fill="#136cff" font-weight="600">▓</text>
    <text x="137.6" y="128" textLength="9.6" lengthAdjust="spacingAndGlyphs" xml:space="preserve" fill="#156fff" font-weight="600">▓</text>
    <text x="147.2" y="128" textLength="9.6" lengthAdjust="spacingAndGlyphs" xml:space="preserve" fill="#1771ff" font-weight="600">▓</text>
    <text x="166.4" y="128" textLength="9.6" lengthAdjust="spacingAndGlyphs" xml:space="preserve" fill="#1c77ff" font-weight="600">▓</text>
    <text x="176" y="128" textLength="9.6" lengthAdjust="spacingAndGlyphs" xml:space="preserve" fill="#1e7aff" font-weight="600">▓</text>
    <text x="185.6" y="128" textLength="9.6" lengthAdjust="spacingAndGlyphs" xml:space="preserve" fill="#207dff" font-weight="600">▓</text>
    <rect x="204.8" y="112" width="9.6" height="11" fill="#2483ff"/>
    <text x="214.4" y="128" textLength="9.6" lengthAdjust="spacingAndGlyphs" xml:space="preserve" fill="#2685ff" font-weight="600">▓</text>
    <text x="224" y="128" textLength="9.6" lengthAdjust="spacingAndGlyphs" xml:space="preserve" fill="#2888ff" font-weight="600">▓</text>
    <text x="233.6" y="128" textLength="9.6" lengthAdjust="spacingAndGlyphs" xml:space="preserve" fill="#2a8bff" font-weight="600">▓</text>
    <text x="272" y="128" textLength="9.6" lengthAdjust="spacingAndGlyphs" xml:space="preserve" fill="#3a98ff" font-weight="600">▓</text>
    <text x="281.6" y="128" textLength="9.6" lengthAdjust="spacingAndGlyphs" xml:space="preserve" fill="#409bff" font-weight="600">▓</text>
    <text x="291.2" y="128" textLength="9.6" lengthAdjust="spacingAndGlyphs" xml:space="preserve" fill="#459fff" font-weight="600">▓</text>
    <text x="310.4" y="128" textLength="9.6" lengthAdjust="spacingAndGlyphs" xml:space="preserve" fill="#50a6ff" font-weight="600">▓</text>
    <text x="320" y="128" textLength="9.6" lengthAdjust="spacingAndGlyphs" xml:space="preserve" fill="#55a9ff" font-weight="600">▓</text>
    <text x="329.6" y="128" textLength="9.6" lengthAdjust="spacingAndGlyphs" xml:space="preserve" fill="#5aadff" font-weight="600">▓</text>
    <rect x="339.2" y="112" width="9.6" height="11" fill="#60b0ff"/>
    <text x="348.8" y="128" textLength="9.6" lengthAdjust="spacingAndGlyphs" xml:space="preserve" fill="#65b4ff" font-weight="600">▓</text>
    <text x="358.4" y="128" textLength="9.6" lengthAdjust="spacingAndGlyphs" xml:space="preserve" fill="#6ab7ff" font-weight="600">▓</text>
    <text x="368" y="128" textLength="9.6" lengthAdjust="spacingAndGlyphs" xml:space="preserve" fill="#70bbff" font-weight="600">▓</text>
    <text x="387.2" y="128" textLength="9.6" lengthAdjust="spacingAndGlyphs" xml:space="preserve" fill="#7ac2ff" font-weight="600">▓</text>
    <text x="396.8" y="128" textLength="9.6" lengthAdjust="spacingAndGlyphs" xml:space="preserve" fill="#80c5ff" font-weight="600">▓</text>
    <text x="406.4" y="128" textLength="9.6" lengthAdjust="spacingAndGlyphs" xml:space="preserve" fill="#85c9ff" font-weight="600">▓</text>
    <rect x="416" y="112" width="9.6" height="11" fill="#8accff"/>
    <text x="425.6" y="128" textLength="9.6" lengthAdjust="spacingAndGlyphs" xml:space="preserve" fill="#8fd0ff" font-weight="600">▓</text>
    <text x="435.2" y="128" textLength="9.6" lengthAdjust="spacingAndGlyphs" xml:space="preserve" fill="#95d3ff" font-weight="600">▓</text>
    <rect x="444.8" y="123" width="9.6" height="11" fill="#9ad6ff"/>
    <text x="464" y="128" textLength="9.6" lengthAdjust="spacingAndGlyphs" xml:space="preserve" fill="#a4dbff" font-weight="600">▓</text>
    <text x="473.6" y="128" textLength="9.6" lengthAdjust="spacingAndGlyphs" xml:space="preserve" fill="#a9ddff" font-weight="600">▓</text>
    <text x="483.2" y="128" textLength="9.6" lengthAdjust="spacingAndGlyphs" xml:space="preserve" fill="#aedfff" font-weight="600">▓</text>
    <text x="521.6" y="128" textLength="9.6" lengthAdjust="spacingAndGlyphs" xml:space="preserve" fill="#c3e7ff" font-weight="600">▓</text>
    <text x="531.2" y="128" textLength="9.6" lengthAdjust="spacingAndGlyphs" xml:space="preserve" fill="#c8e9ff" font-weight="600">▓</text>
    <text x="540.8" y="128" textLength="9.6" lengthAdjust="spacingAndGlyphs" xml:space="preserve" fill="#cdebff" font-weight="600">▓</text>
    <rect x="579.2" y="112" width="9.6" height="11" fill="#e1f3ff"/>
    <rect x="588.8" y="112" width="9.6" height="11" fill="#e6f5ff"/>
    <rect x="598.4" y="112" width="9.6" height="11" fill="#ebf7ff"/>
    <rect x="608" y="112" width="9.6" height="11" fill="#f0f9ff"/>
    <text x="617.6" y="128" textLength="9.6" lengthAdjust="spacingAndGlyphs" xml:space="preserve" fill="#f5fbff" font-weight="600">▓</text>
    <text x="627.2" y="128" textLength="9.6" lengthAdjust="spacingAndGlyphs" xml:space="preserve" fill="#fafdff" font-weight="600">▓</text>
    <text x="636.8" y="128" textLength="9.6" lengthAdjust="spacingAndGlyphs" xml:space="preserve" fill="#ffffff" font-weight="600">▓</text>
    <text x="41.6" y="150" textLength="9.6" lengthAdjust="spacingAndGlyphs" xml:space="preserve" fill="#0052ff" font-weight="600">▒</text>
    <text x="51.2" y="150" textLength="9.6" lengthAdjust="spacingAndGlyphs" xml:space="preserve" fill="#0255ff" font-weight="600">▒</text>
    <text x="60.8" y="150" textLength="9.6" lengthAdjust="spacingAndGlyphs" xml:space="preserve" fill="#0458ff" font-weight="600">▒</text>
    <text x="89.6" y="150" textLength="9.6" lengthAdjust="spacingAndGlyphs" xml:space="preserve" fill="#0b60ff" font-weight="600">▒</text>
    <text x="99.2" y="150" textLength="9.6" lengthAdjust="spacingAndGlyphs" xml:space="preserve" fill="#0d63ff" font-weight="600">▒</text>
    <text x="108.8" y="150" textLength="9.6" lengthAdjust="spacingAndGlyphs" xml:space="preserve" fill="#0f66ff" font-weight="600">▒</text>
    <text x="128" y="150" textLength="9.6" lengthAdjust="spacingAndGlyphs" xml:space="preserve" fill="#136cff" font-weight="600">▒</text>
    <text x="137.6" y="150" textLength="9.6" lengthAdjust="spacingAndGlyphs" xml:space="preserve" fill="#156fff" font-weight="600">▒</text>
    <text x="147.2" y="150" textLength="9.6" lengthAdjust="spacingAndGlyphs" xml:space="preserve" fill="#1771ff" font-weight="600">▒</text>
    <text x="166.4" y="150" textLength="9.6" lengthAdjust="spacingAndGlyphs" xml:space="preserve" fill="#1c77ff" font-weight="600">▒</text>
    <text x="176" y="150" textLength="9.6" lengthAdjust="spacingAndGlyphs" xml:space="preserve" fill="#1e7aff" font-weight="600">▒</text>
    <text x="185.6" y="150" textLength="9.6" lengthAdjust="spacingAndGlyphs" xml:space="preserve" fill="#207dff" font-weight="600">▒</text>
    <text x="214.4" y="150" textLength="9.6" lengthAdjust="spacingAndGlyphs" xml:space="preserve" fill="#2685ff" font-weight="600">▒</text>
    <text x="224" y="150" textLength="9.6" lengthAdjust="spacingAndGlyphs" xml:space="preserve" fill="#2888ff" font-weight="600">▒</text>
    <text x="233.6" y="150" textLength="9.6" lengthAdjust="spacingAndGlyphs" xml:space="preserve" fill="#2a8bff" font-weight="600">▒</text>
    <text x="272" y="150" textLength="9.6" lengthAdjust="spacingAndGlyphs" xml:space="preserve" fill="#3a98ff" font-weight="600">▒</text>
    <text x="281.6" y="150" textLength="9.6" lengthAdjust="spacingAndGlyphs" xml:space="preserve" fill="#409bff" font-weight="600">▒</text>
    <text x="291.2" y="150" textLength="9.6" lengthAdjust="spacingAndGlyphs" xml:space="preserve" fill="#459fff" font-weight="600">▒</text>
    <text x="310.4" y="150" textLength="9.6" lengthAdjust="spacingAndGlyphs" xml:space="preserve" fill="#50a6ff" font-weight="600">▒</text>
    <text x="320" y="150" textLength="9.6" lengthAdjust="spacingAndGlyphs" xml:space="preserve" fill="#55a9ff" font-weight="600">▒</text>
    <text x="329.6" y="150" textLength="9.6" lengthAdjust="spacingAndGlyphs" xml:space="preserve" fill="#5aadff" font-weight="600">▒</text>
    <text x="348.8" y="150" textLength="9.6" lengthAdjust="spacingAndGlyphs" xml:space="preserve" fill="#65b4ff" font-weight="600">▒</text>
    <text x="358.4" y="150" textLength="9.6" lengthAdjust="spacingAndGlyphs" xml:space="preserve" fill="#6ab7ff" font-weight="600">▒</text>
    <text x="368" y="150" textLength="9.6" lengthAdjust="spacingAndGlyphs" xml:space="preserve" fill="#70bbff" font-weight="600">▒</text>
    <text x="387.2" y="150" textLength="9.6" lengthAdjust="spacingAndGlyphs" xml:space="preserve" fill="#7ac2ff" font-weight="600">▒</text>
    <text x="396.8" y="150" textLength="9.6" lengthAdjust="spacingAndGlyphs" xml:space="preserve" fill="#80c5ff" font-weight="600">▒</text>
    <text x="406.4" y="150" textLength="9.6" lengthAdjust="spacingAndGlyphs" xml:space="preserve" fill="#85c9ff" font-weight="600">▒</text>
    <text x="425.6" y="150" textLength="9.6" lengthAdjust="spacingAndGlyphs" xml:space="preserve" fill="#8fd0ff" font-weight="600">▒</text>
    <text x="435.2" y="150" textLength="9.6" lengthAdjust="spacingAndGlyphs" xml:space="preserve" fill="#95d3ff" font-weight="600">▒</text>
    <text x="444.8" y="150" textLength="9.6" lengthAdjust="spacingAndGlyphs" xml:space="preserve" fill="#9ad6ff" font-weight="600">▒</text>
    <text x="464" y="150" textLength="9.6" lengthAdjust="spacingAndGlyphs" xml:space="preserve" fill="#a4dbff" font-weight="600">▒</text>
    <text x="473.6" y="150" textLength="9.6" lengthAdjust="spacingAndGlyphs" xml:space="preserve" fill="#a9ddff" font-weight="600">▒</text>
    <text x="483.2" y="150" textLength="9.6" lengthAdjust="spacingAndGlyphs" xml:space="preserve" fill="#aedfff" font-weight="600">▒</text>
    <text x="521.6" y="150" textLength="9.6" lengthAdjust="spacingAndGlyphs" xml:space="preserve" fill="#c3e7ff" font-weight="600">▒</text>
    <text x="531.2" y="150" textLength="9.6" lengthAdjust="spacingAndGlyphs" xml:space="preserve" fill="#c8e9ff" font-weight="600">▒</text>
    <text x="540.8" y="150" textLength="9.6" lengthAdjust="spacingAndGlyphs" xml:space="preserve" fill="#cdebff" font-weight="600">▒</text>
    <text x="579.2" y="150" textLength="9.6" lengthAdjust="spacingAndGlyphs" xml:space="preserve" fill="#e1f3ff" font-weight="600">▒</text>
    <text x="588.8" y="150" textLength="9.6" lengthAdjust="spacingAndGlyphs" xml:space="preserve" fill="#e6f5ff" font-weight="600">▒</text>
    <text x="598.4" y="150" textLength="9.6" lengthAdjust="spacingAndGlyphs" xml:space="preserve" fill="#ebf7ff" font-weight="600">▒</text>
    <text x="617.6" y="150" textLength="9.6" lengthAdjust="spacingAndGlyphs" xml:space="preserve" fill="#f5fbff" font-weight="600">▒</text>
    <text x="627.2" y="150" textLength="9.6" lengthAdjust="spacingAndGlyphs" xml:space="preserve" fill="#fafdff" font-weight="600">▒</text>
    <text x="636.8" y="150" textLength="9.6" lengthAdjust="spacingAndGlyphs" xml:space="preserve" fill="#ffffff" font-weight="600">▒</text>
    <text x="41.6" y="172" textLength="9.6" lengthAdjust="spacingAndGlyphs" xml:space="preserve" fill="#0052ff" font-weight="600">░</text>
    <text x="51.2" y="172" textLength="9.6" lengthAdjust="spacingAndGlyphs" xml:space="preserve" fill="#0255ff" font-weight="600">░</text>
    <text x="60.8" y="172" textLength="9.6" lengthAdjust="spacingAndGlyphs" xml:space="preserve" fill="#0458ff" font-weight="600">░</text>
    <text x="89.6" y="172" textLength="9.6" lengthAdjust="spacingAndGlyphs" xml:space="preserve" fill="#0b60ff" font-weight="600">░</text>
    <text x="99.2" y="172" textLength="9.6" lengthAdjust="spacingAndGlyphs" xml:space="preserve" fill="#0d63ff" font-weight="600">░</text>
    <text x="108.8" y="172" textLength="9.6" lengthAdjust="spacingAndGlyphs" xml:space="preserve" fill="#0f66ff" font-weight="600">░</text>
    <text x="128" y="172" textLength="9.6" lengthAdjust="spacingAndGlyphs" xml:space="preserve" fill="#136cff" font-weight="600">░</text>
    <text x="137.6" y="172" textLength="9.6" lengthAdjust="spacingAndGlyphs" xml:space="preserve" fill="#156fff" font-weight="600">░</text>
    <text x="147.2" y="172" textLength="9.6" lengthAdjust="spacingAndGlyphs" xml:space="preserve" fill="#1771ff" font-weight="600">░</text>
    <text x="166.4" y="172" textLength="9.6" lengthAdjust="spacingAndGlyphs" xml:space="preserve" fill="#1c77ff" font-weight="600">░</text>
    <text x="176" y="172" textLength="9.6" lengthAdjust="spacingAndGlyphs" xml:space="preserve" fill="#1e7aff" font-weight="600">░</text>
    <text x="185.6" y="172" textLength="9.6" lengthAdjust="spacingAndGlyphs" xml:space="preserve" fill="#207dff" font-weight="600">░</text>
    <text x="214.4" y="172" textLength="9.6" lengthAdjust="spacingAndGlyphs" xml:space="preserve" fill="#2685ff" font-weight="600">░</text>
    <text x="224" y="172" textLength="9.6" lengthAdjust="spacingAndGlyphs" xml:space="preserve" fill="#2888ff" font-weight="600">░</text>
    <text x="233.6" y="172" textLength="9.6" lengthAdjust="spacingAndGlyphs" xml:space="preserve" fill="#2a8bff" font-weight="600">░</text>
    <text x="272" y="172" textLength="9.6" lengthAdjust="spacingAndGlyphs" xml:space="preserve" fill="#3a98ff" font-weight="600">░</text>
    <text x="281.6" y="172" textLength="9.6" lengthAdjust="spacingAndGlyphs" xml:space="preserve" fill="#409bff" font-weight="600">░</text>
    <text x="291.2" y="172" textLength="9.6" lengthAdjust="spacingAndGlyphs" xml:space="preserve" fill="#459fff" font-weight="600">░</text>
    <text x="310.4" y="172" textLength="9.6" lengthAdjust="spacingAndGlyphs" xml:space="preserve" fill="#50a6ff" font-weight="600">░</text>
    <text x="320" y="172" textLength="9.6" lengthAdjust="spacingAndGlyphs" xml:space="preserve" fill="#55a9ff" font-weight="600">░</text>
    <text x="329.6" y="172" textLength="9.6" lengthAdjust="spacingAndGlyphs" xml:space="preserve" fill="#5aadff" font-weight="600">░</text>
    <text x="348.8" y="172" textLength="9.6" lengthAdjust="spacingAndGlyphs" xml:space="preserve" fill="#65b4ff" font-weight="600">░</text>
    <text x="358.4" y="172" textLength="9.6" lengthAdjust="spacingAndGlyphs" xml:space="preserve" fill="#6ab7ff" font-weight="600">░</text>
    <text x="368" y="172" textLength="9.6" lengthAdjust="spacingAndGlyphs" xml:space="preserve" fill="#70bbff" font-weight="600">░</text>
    <text x="387.2" y="172" textLength="9.6" lengthAdjust="spacingAndGlyphs" xml:space="preserve" fill="#7ac2ff" font-weight="600">░</text>
    <text x="396.8" y="172" textLength="9.6" lengthAdjust="spacingAndGlyphs" xml:space="preserve" fill="#80c5ff" font-weight="600">░</text>
    <text x="406.4" y="172" textLength="9.6" lengthAdjust="spacingAndGlyphs" xml:space="preserve" fill="#85c9ff" font-weight="600">░</text>
    <text x="425.6" y="172" textLength="9.6" lengthAdjust="spacingAndGlyphs" xml:space="preserve" fill="#8fd0ff" font-weight="600">░</text>
    <text x="435.2" y="172" textLength="9.6" lengthAdjust="spacingAndGlyphs" xml:space="preserve" fill="#95d3ff" font-weight="600">░</text>
    <text x="444.8" y="172" textLength="9.6" lengthAdjust="spacingAndGlyphs" xml:space="preserve" fill="#9ad6ff" font-weight="600">░</text>
    <text x="464" y="172" textLength="9.6" lengthAdjust="spacingAndGlyphs" xml:space="preserve" fill="#a4dbff" font-weight="600">░</text>
    <text x="473.6" y="172" textLength="9.6" lengthAdjust="spacingAndGlyphs" xml:space="preserve" fill="#a9ddff" font-weight="600">░</text>
    <text x="483.2" y="172" textLength="9.6" lengthAdjust="spacingAndGlyphs" xml:space="preserve" fill="#aedfff" font-weight="600">░</text>
    <text x="521.6" y="172" textLength="9.6" lengthAdjust="spacingAndGlyphs" xml:space="preserve" fill="#c3e7ff" font-weight="600">░</text>
    <text x="531.2" y="172" textLength="9.6" lengthAdjust="spacingAndGlyphs" xml:space="preserve" fill="#c8e9ff" font-weight="600">░</text>
    <text x="540.8" y="172" textLength="9.6" lengthAdjust="spacingAndGlyphs" xml:space="preserve" fill="#cdebff" font-weight="600">░</text>
    <text x="579.2" y="172" textLength="9.6" lengthAdjust="spacingAndGlyphs" xml:space="preserve" fill="#e1f3ff" font-weight="600">░</text>
    <text x="588.8" y="172" textLength="9.6" lengthAdjust="spacingAndGlyphs" xml:space="preserve" fill="#e6f5ff" font-weight="600">░</text>
    <text x="598.4" y="172" textLength="9.6" lengthAdjust="spacingAndGlyphs" xml:space="preserve" fill="#ebf7ff" font-weight="600">░</text>
    <text x="617.6" y="172" textLength="9.6" lengthAdjust="spacingAndGlyphs" xml:space="preserve" fill="#f5fbff" font-weight="600">░</text>
    <text x="627.2" y="172" textLength="9.6" lengthAdjust="spacingAndGlyphs" xml:space="preserve" fill="#fafdff" font-weight="600">░</text>
    <text x="636.8" y="172" textLength="9.6" lengthAdjust="spacingAndGlyphs" xml:space="preserve" fill="#ffffff" font-weight="600">░</text>
    <rect x="41.6" y="178" width="9.6" height="11" fill="#0052ff"/>
    <rect x="51.2" y="178" width="9.6" height="11" fill="#0255ff"/>
    <rect x="60.8" y="178" width="9.6" height="11" fill="#0458ff"/>
    <rect x="89.6" y="178" width="9.6" height="11" fill="#0b60ff"/>
    <rect x="99.2" y="178" width="9.6" height="11" fill="#0d63ff"/>
    <rect x="108.8" y="178" width="9.6" height="11" fill="#0f66ff"/>
    <rect x="128" y="178" width="9.6" height="11" fill="#136cff"/>
    <rect x="137.6" y="178" width="9.6" height="11" fill="#156fff"/>
    <rect x="147.2" y="178" width="9.6" height="11" fill="#1771ff"/>
    <rect x="166.4" y="178" width="9.6" height="11" fill="#1c77ff"/>
    <rect x="176" y="178" width="9.6" height="11" fill="#1e7aff"/>
    <rect x="185.6" y="178" width="9.6" height="11" fill="#207dff"/>
    <rect x="214.4" y="178" width="9.6" height="11" fill="#2685ff"/>
    <rect x="224" y="178" width="9.6" height="11" fill="#2888ff"/>
    <rect x="233.6" y="178" width="9.6" height="11" fill="#2a8bff"/>
    <rect x="252.8" y="178" width="9.6" height="11" fill="#3091ff"/>
    <rect x="262.4" y="178" width="9.6" height="11" fill="#3595ff"/>
    <rect x="272" y="178" width="9.6" height="11" fill="#3a98ff"/>
    <rect x="281.6" y="178" width="9.6" height="11" fill="#409bff"/>
    <rect x="291.2" y="178" width="9.6" height="11" fill="#459fff"/>
    <rect x="310.4" y="178" width="9.6" height="11" fill="#50a6ff"/>
    <rect x="320" y="178" width="9.6" height="11" fill="#55a9ff"/>
    <rect x="329.6" y="178" width="9.6" height="11" fill="#5aadff"/>
    <rect x="348.8" y="178" width="9.6" height="11" fill="#65b4ff"/>
    <rect x="358.4" y="178" width="9.6" height="11" fill="#6ab7ff"/>
    <rect x="368" y="178" width="9.6" height="11" fill="#70bbff"/>
    <rect x="387.2" y="178" width="9.6" height="11" fill="#7ac2ff"/>
    <rect x="396.8" y="178" width="9.6" height="11" fill="#80c5ff"/>
    <rect x="406.4" y="178" width="9.6" height="11" fill="#85c9ff"/>
    <rect x="416" y="178" width="9.6" height="11" fill="#8accff"/>
    <rect x="425.6" y="178" width="9.6" height="11" fill="#8fd0ff"/>
    <rect x="435.2" y="178" width="9.6" height="11" fill="#95d3ff"/>
    <rect x="464" y="178" width="9.6" height="11" fill="#a4dbff"/>
    <rect x="473.6" y="178" width="9.6" height="11" fill="#a9ddff"/>
    <rect x="483.2" y="178" width="9.6" height="11" fill="#aedfff"/>
    <rect x="521.6" y="178" width="9.6" height="11" fill="#c3e7ff"/>
    <rect x="531.2" y="178" width="9.6" height="11" fill="#c8e9ff"/>
    <rect x="540.8" y="178" width="9.6" height="11" fill="#cdebff"/>
    <rect x="579.2" y="178" width="9.6" height="11" fill="#e1f3ff"/>
    <rect x="588.8" y="178" width="9.6" height="11" fill="#e6f5ff"/>
    <rect x="598.4" y="178" width="9.6" height="11" fill="#ebf7ff"/>
    <rect x="608" y="178" width="9.6" height="11" fill="#f0f9ff"/>
    <rect x="617.6" y="178" width="9.6" height="11" fill="#f5fbff"/>
    <rect x="627.2" y="178" width="9.6" height="11" fill="#fafdff"/>
    <rect x="636.8" y="178" width="9.6" height="11" fill="#ffffff"/>
    <text x="41.6" y="216" textLength="748.8" lengthAdjust="spacingAndGlyphs" xml:space="preserve" fill="#334155">──────────────────────────────────────────────────────────────────────────────</text>
    <rect x="41.6" y="244" width="4.8" height="22" fill="#334155"/>
    <text x="60.8" y="260" textLength="28.8" lengthAdjust="spacingAndGlyphs" xml:space="preserve" fill="#94a3b8">All</text>
    <text x="204.8" y="260" textLength="19.2" lengthAdjust="spacingAndGlyphs" xml:space="preserve" fill="#334155">╭─</text>
    <text x="233.6" y="260" textLength="57.6" lengthAdjust="spacingAndGlyphs" xml:space="preserve" fill="#334155" font-weight="600">Search</text>
    <text x="300.8" y="260" textLength="489.6" lengthAdjust="spacingAndGlyphs" xml:space="preserve" fill="#334155">──────────────────────────────────────────────────╮</text>
    <text x="60.8" y="282" textLength="48" lengthAdjust="spacingAndGlyphs" xml:space="preserve" fill-opacity="0.55">Games</text>
    <rect x="208.9" y="266" width="1.4" height="22" fill="#334155"/>
    <text x="224" y="282" textLength="9.6" lengthAdjust="spacingAndGlyphs" xml:space="preserve" fill="#60a5fa">❯</text>
    <text x="243.2" y="282" textLength="288" lengthAdjust="spacingAndGlyphs" xml:space="preserve" fill-opacity="0.55">Search or paste a magnet link…</text>
    <rect x="784.9" y="266" width="1.4" height="22" fill="#334155"/>
    <text x="60.8" y="304" textLength="57.6" lengthAdjust="spacingAndGlyphs" xml:space="preserve" fill-opacity="0.55">Movies</text>
    <text x="204.8" y="304" textLength="585.6" lengthAdjust="spacingAndGlyphs" xml:space="preserve" fill="#334155">╰───────────────────────────────────────────────────────────╯</text>
    <text x="60.8" y="326" textLength="19.2" lengthAdjust="spacingAndGlyphs" xml:space="preserve" fill-opacity="0.55">TV</text>
    <text x="60.8" y="348" textLength="48" lengthAdjust="spacingAndGlyphs" xml:space="preserve" fill-opacity="0.55">Anime</text>
    <text x="204.8" y="348" textLength="19.2" lengthAdjust="spacingAndGlyphs" xml:space="preserve" fill="#60a5fa">╭─</text>
    <text x="233.6" y="348" textLength="96" lengthAdjust="spacingAndGlyphs" xml:space="preserve" fill="#60a5fa" font-weight="600">Latest (5)</text>
    <text x="339.2" y="348" textLength="451.2" lengthAdjust="spacingAndGlyphs" xml:space="preserve" fill="#60a5fa">──────────────────────────────────────────────╮</text>
    <text x="60.8" y="370" textLength="86.4" lengthAdjust="spacingAndGlyphs" xml:space="preserve" fill-opacity="0.55">Magazines</text>
    <rect x="208.9" y="354" width="1.4" height="22" fill="#60a5fa"/>
    <text x="224" y="370" textLength="240" lengthAdjust="spacingAndGlyphs" xml:space="preserve" fill-opacity="0.55">newest across all sources</text>
    <rect x="784.9" y="354" width="1.4" height="22" fill="#60a5fa"/>
    <text x="60.8" y="392" textLength="115.2" lengthAdjust="spacingAndGlyphs" xml:space="preserve" fill-opacity="0.55">Applications</text>
    <rect x="208.9" y="376" width="1.4" height="22" fill="#60a5fa"/>
    <rect x="784.9" y="376" width="1.4" height="22" fill="#60a5fa"/>
    <text x="60.8" y="414" textLength="48" lengthAdjust="spacingAndGlyphs" xml:space="preserve" fill-opacity="0.55">Music</text>
    <rect x="208.9" y="398" width="1.4" height="22" fill="#60a5fa"/>
    <text x="252.8" y="414" textLength="9.6" lengthAdjust="spacingAndGlyphs" xml:space="preserve" fill-opacity="0.55" font-weight="600">#</text>
    <text x="272" y="414" textLength="38.4" lengthAdjust="spacingAndGlyphs" xml:space="preserve" fill-opacity="0.55" font-weight="600">Name</text>
    <text x="588.8" y="414" textLength="38.4" lengthAdjust="spacingAndGlyphs" xml:space="preserve" fill-opacity="0.55" font-weight="600">Size</text>
    <text x="646.4" y="414" textLength="76.8" lengthAdjust="spacingAndGlyphs" xml:space="preserve" fill-opacity="0.55" font-weight="600">Seed:Lch</text>
    <text x="742.4" y="414" textLength="28.8" lengthAdjust="spacingAndGlyphs" xml:space="preserve" fill-opacity="0.55" font-weight="600">Src</text>
    <rect x="784.9" y="398" width="1.4" height="22" fill="#60a5fa"/>
    <text x="60.8" y="436" textLength="48" lengthAdjust="spacingAndGlyphs" xml:space="preserve" fill-opacity="0.55">Audio</text>
    <rect x="208.9" y="420" width="1.4" height="22" fill="#60a5fa"/>
    <text x="224" y="436" textLength="9.6" lengthAdjust="spacingAndGlyphs" xml:space="preserve" fill="#60a5fa">❯</text>
    <text x="252.8" y="436" textLength="9.6" lengthAdjust="spacingAndGlyphs" xml:space="preserve" fill-opacity="0.55">1</text>
    <text x="272" y="436" textLength="249.6" lengthAdjust="spacingAndGlyphs" xml:space="preserve" fill="#60a5fa" font-weight="600">Oppenheimer (2023) [1080p…</text>
    <text x="560" y="436" textLength="67.2" lengthAdjust="spacingAndGlyphs" xml:space="preserve" fill-opacity="0.55">1.96 GB</text>
    <text x="656" y="436" textLength="67.2" lengthAdjust="spacingAndGlyphs" xml:space="preserve" fill="#34d399">1240:88</text>
    <text x="742.4" y="436" textLength="28.8" lengthAdjust="spacingAndGlyphs" xml:space="preserve" fill="#34d399">YTS</text>
    <rect x="784.9" y="420" width="1.4" height="22" fill="#60a5fa"/>
    <text x="60.8" y="458" textLength="38.4" lengthAdjust="spacingAndGlyphs" xml:space="preserve" fill-opacity="0.55">ROMs</text>
    <rect x="208.9" y="442" width="1.4" height="22" fill="#60a5fa"/>
    <text x="252.8" y="458" textLength="9.6" lengthAdjust="spacingAndGlyphs" xml:space="preserve" fill-opacity="0.55">2</text>
    <text x="272" y="458" textLength="249.6" lengthAdjust="spacingAndGlyphs" xml:space="preserve" fill-opacity="0.55">Dune: Part Two (2024) [21…</text>
    <text x="560" y="458" textLength="67.2" lengthAdjust="spacingAndGlyphs" xml:space="preserve" fill-opacity="0.55">7.82 GB</text>
    <text x="665.6" y="458" textLength="57.6" lengthAdjust="spacingAndGlyphs" xml:space="preserve" fill="#34d399">910:41</text>
    <text x="742.4" y="458" textLength="28.8" lengthAdjust="spacingAndGlyphs" xml:space="preserve" fill="#34d399" fill-opacity="0.55">YTS</text>
    <rect x="784.9" y="442" width="1.4" height="22" fill="#60a5fa"/>
    <text x="60.8" y="480" textLength="48" lengthAdjust="spacingAndGlyphs" xml:space="preserve" fill-opacity="0.55">Adult</text>
    <rect x="208.9" y="464" width="1.4" height="22" fill="#60a5fa"/>
    <text x="252.8" y="480" textLength="9.6" lengthAdjust="spacingAndGlyphs" xml:space="preserve" fill-opacity="0.55">3</text>
    <text x="272" y="480" textLength="249.6" lengthAdjust="spacingAndGlyphs" xml:space="preserve" fill-opacity="0.55">Breaking Bad S05E14 1080p…</text>
    <text x="560" y="480" textLength="67.2" lengthAdjust="spacingAndGlyphs" xml:space="preserve" fill-opacity="0.55">1.49 GB</text>
    <text x="665.6" y="480" textLength="57.6" lengthAdjust="spacingAndGlyphs" xml:space="preserve" fill="#34d399">540:31</text>
    <text x="732.8" y="480" textLength="38.4" lengthAdjust="spacingAndGlyphs" xml:space="preserve" fill="#fbbf24" fill-opacity="0.55">EZTV</text>
    <rect x="784.9" y="464" width="1.4" height="22" fill="#60a5fa"/>
    <rect x="208.9" y="486" width="1.4" height="22" fill="#60a5fa"/>
    <text x="252.8" y="502" textLength="9.6" lengthAdjust="spacingAndGlyphs" xml:space="preserve" fill-opacity="0.55">4</text>
    <text x="272" y="502" textLength="249.6" lengthAdjust="spacingAndGlyphs" xml:space="preserve" fill-opacity="0.55">[Erai-raws] Jujutsu Kaise…</text>
    <text x="560" y="502" textLength="67.2" lengthAdjust="spacingAndGlyphs" xml:space="preserve" fill-opacity="0.55">1.21 GB</text>
    <text x="665.6" y="502" textLength="57.6" lengthAdjust="spacingAndGlyphs" xml:space="preserve" fill="#34d399">320:12</text>
    <text x="732.8" y="502" textLength="38.4" lengthAdjust="spacingAndGlyphs" xml:space="preserve" fill="#ffffff" fill-opacity="0.55">NYAA</text>
    <rect x="784.9" y="486" width="1.4" height="22" fill="#60a5fa"/>
    <text x="60.8" y="524" textLength="86.4" lengthAdjust="spacingAndGlyphs" xml:space="preserve" fill-opacity="0.55">Downloads</text>
    <rect x="208.9" y="508" width="1.4" height="22" fill="#60a5fa"/>
    <text x="252.8" y="524" textLength="9.6" lengthAdjust="spacingAndGlyphs" xml:space="preserve" fill-opacity="0.55">5</text>
    <text x="272" y="524" textLength="192" lengthAdjust="spacingAndGlyphs" xml:space="preserve" fill-opacity="0.55">Frieren - 28 [1080p]</text>
    <text x="560" y="524" textLength="67.2" lengthAdjust="spacingAndGlyphs" xml:space="preserve" fill-opacity="0.55">1.30 GB</text>
    <text x="713.6" y="524" textLength="9.6" lengthAdjust="spacingAndGlyphs" xml:space="preserve" fill-opacity="0.55">-</text>
    <text x="742.4" y="524" textLength="28.8" lengthAdjust="spacingAndGlyphs" xml:space="preserve" fill="#b9a7e6" fill-opacity="0.55">SUB</text>
    <rect x="784.9" y="508" width="1.4" height="22" fill="#60a5fa"/>
    <text x="60.8" y="546" textLength="67.2" lengthAdjust="spacingAndGlyphs" xml:space="preserve" fill-opacity="0.55">Seeding</text>
    <text x="204.8" y="546" textLength="585.6" lengthAdjust="spacingAndGlyphs" xml:space="preserve" fill="#60a5fa">╰───────────────────────────────────────────────────────────╯</text>
    <text x="41.6" y="568" textLength="38.4" lengthAdjust="spacingAndGlyphs" xml:space="preserve" fill="#94a3b8">↑↓←→</text>
    <text x="89.6" y="568" textLength="38.4" lengthAdjust="spacingAndGlyphs" xml:space="preserve" fill-opacity="0.55">Move</text>
    <text x="156.8" y="568" textLength="9.6" lengthAdjust="spacingAndGlyphs" xml:space="preserve" fill="#94a3b8">d</text>
    <text x="176" y="568" textLength="76.8" lengthAdjust="spacingAndGlyphs" xml:space="preserve" fill-opacity="0.55">Download</text>
    <text x="281.6" y="568" textLength="9.6" lengthAdjust="spacingAndGlyphs" xml:space="preserve" fill="#94a3b8">y</text>
    <text x="300.8" y="568" textLength="38.4" lengthAdjust="spacingAndGlyphs" xml:space="preserve" fill-opacity="0.55">Copy</text>
    <text x="368" y="568" textLength="9.6" lengthAdjust="spacingAndGlyphs" xml:space="preserve" fill="#94a3b8">s</text>
    <text x="387.2" y="568" textLength="38.4" lengthAdjust="spacingAndGlyphs" xml:space="preserve" fill-opacity="0.55">Sort</text>
    <text x="454.4" y="568" textLength="9.6" lengthAdjust="spacingAndGlyphs" xml:space="preserve" fill="#94a3b8">/</text>
    <text x="473.6" y="568" textLength="57.6" lengthAdjust="spacingAndGlyphs" xml:space="preserve" fill-opacity="0.55">Search</text>
    <text x="560" y="568" textLength="28.8" lengthAdjust="spacingAndGlyphs" xml:space="preserve" fill="#94a3b8">tab</text>
    <text x="598.4" y="568" textLength="57.6" lengthAdjust="spacingAndGlyphs" xml:space="preserve" fill-opacity="0.55">Switch</text>
    <text x="684.8" y="568" textLength="9.6" lengthAdjust="spacingAndGlyphs" xml:space="preserve" fill="#94a3b8">?</text>
    <text x="704" y="568" textLength="38.4" lengthAdjust="spacingAndGlyphs" xml:space="preserve" fill-opacity="0.55">Keys</text>
  </g>
</svg>