<?xml version="1.0" encoding="UTF-8"?>
<svg xmlns="http://www.w3.org/2000/svg" width="832" height="540" viewBox="0 0 832 540" style="max-width: 832px; width: 100%; height: auto;" role="img">
  <rect width="100%" height="100%" rx="14" fill="#0a0810"/>
  <rect x="0.5" y="0.5" width="831" height="539" rx="14" fill="none" stroke="#2d2b31" stroke-width="1"/>
  <text x="416" y="23" text-anchor="middle" font-family='ui-monospace, "Cascadia Mono", "SF Mono", Menlo, Consolas, "DejaVu Sans Mono", monospace' font-size="13" fill="#8a8a8a">NinjaBits</text>
  <g font-family='ui-monospace, "Cascadia Mono", "SF Mono", Menlo, Consolas, "DejaVu Sans Mono", monospace' font-size="16" fill="#ddd8ea">
    <rect x="41.6" y="79" width="9.6" height="11" fill="#0052ff"/>
    <rect x="70.4" y="79" width="9.6" height="11" fill="#0c62ff"/>
    <rect x="89.6" y="79" width="9.6" height="11" fill="#146dff"/>
    <rect x="108.8" y="79" width="9.6" height="11" fill="#1c78ff"/>
    <rect x="137.6" y="79" width="9.6" height="11" fill="#2888ff"/>
    <rect x="176" y="79" width="9.6" height="11" fill="#47a0ff"/>
    <rect x="214.4" y="79" width="9.6" height="11" fill="#6fbaff"/>
    <rect x="243.2" y="79" width="9.6" height="11" fill="#8dceff"/>
    <rect x="252.8" y="79" width="9.6" height="11" fill="#97d4ff"/>
    <rect x="281.6" y="79" width="9.6" height="11" fill="#b3e1ff"/>
    <rect x="300.8" y="79" width="9.6" height="11" fill="#c6e8ff"/>
    <rect x="310.4" y="79" width="9.6" height="11" fill="#d0ecff"/>
    <rect x="320" y="79" width="9.6" height="11" fill="#d9f0ff"/>
    <rect x="339.2" y="79" width="9.6" height="11" fill="#ecf7ff"/>
    <rect x="348.8" y="79" width="9.6" height="11" fill="#f6fbff"/>
    <rect x="358.4" y="79" width="9.6" height="11" fill="#ffffff"/>
    <rect x="41.6" y="90" width="9.6" height="22" fill="#0052ff"/>
    <rect x="51.2" y="90" width="9.6" height="11" fill="#0457ff"/>
    <text x="60.8" y="106" textLength="9.6" lengthAdjust="spacingAndGlyphs" xml:space="preserve" fill="#085dff" font-weight="600">■</text>
    <rect x="70.4" y="90" width="9.6" height="22" fill="#0c62ff"/>
    <rect x="89.6" y="101" width="9.6" height="11" fill="#146dff"/>
    <rect x="108.8" y="90" width="9.6" height="22" fill="#1c78ff"/>
    <rect x="118.4" y="90" width="9.6" height="11" fill="#207dff"/>
    <text x="128" y="106" textLength="9.6" lengthAdjust="spacingAndGlyphs" xml:space="preserve" fill="#2482ff" font-weight="600">■</text>
    <rect x="137.6" y="90" width="9.6" height="22" fill="#2888ff"/>
    <rect x="166.4" y="90" width="9.6" height="22" fill="#3d99ff"/>
    <rect x="185.6" y="90" width="9.6" height="22" fill="#51a6ff"/>
    <text x="195.2" y="106" textLength="9.6" lengthAdjust="spacingAndGlyphs" xml:space="preserve" fill="#5badff" font-weight="600">■</text>
    <rect x="204.8" y="90" width="9.6" height="22" fill="#65b4ff"/>
    <rect x="224" y="90" width="9.6" height="22" fill="#79c1ff"/>
    <text x="233.6" y="106" textLength="9.6" lengthAdjust="spacingAndGlyphs" xml:space="preserve" fill="#83c7ff" font-weight="600">■</text>
    <rect x="243.2" y="101" width="9.6" height="11" fill="#8dceff"/>
    <rect x="262.4" y="101" width="9.6" height="11" fill="#a0d9ff"/>
    <rect x="291.2" y="90" width="9.6" height="22" fill="#bde4ff"/>
    <rect x="320" y="90" width="9.6" height="11" fill="#d9f0ff"/>
    <text x="329.6" y="106" textLength="9.6" lengthAdjust="spacingAndGlyphs" xml:space="preserve" fill="#e3f4ff" font-weight="600">■</text>
    <rect x="339.2" y="101" width="9.6" height="11" fill="#ecf7ff"/>
    <rect x="41.6" y="112" width="9.6" height="11" fill="#0052ff"/>
    <rect x="70.4" y="112" width="9.6" height="11" fill="#0c62ff"/>
    <rect x="89.6" y="112" width="9.6" height="11" fill="#146dff"/>
    <rect x="108.8" y="112" width="9.6" height="11" fill="#1c78ff"/>
    <rect x="137.6" y="112" width="9.6" height="11" fill="#2888ff"/>
    <rect x="156.8" y="112" width="9.6" height="11" fill="#3393ff"/>
    <rect x="166.4" y="112" width="9.6" height="11" fill="#3d99ff"/>
    <rect x="185.6" y="112" width="9.6" height="11" fill="#51a6ff"/>
    <rect x="204.8" y="112" width="9.6" height="11" fill="#65b4ff"/>
    <rect x="224" y="112" width="9.6" height="11" fill="#79c1ff"/>
    <rect x="233.6" y="112" width="9.6" height="11" fill="#83c7ff"/>
    <rect x="262.4" y="112" width="9.6" height="11" fill="#a0d9ff"/>
    <rect x="291.2" y="112" width="9.6" height="11" fill="#bde4ff"/>
    <rect x="320" y="112" width="9.6" height="11" fill="#d9f0ff"/>
    <rect x="329.6" y="112" width="9.6" height="11" fill="#e3f4ff"/>
    <rect x="339.2" y="112" width="9.6" height="11" fill="#ecf7ff"/>
    <text x="41.6" y="150" textLength="748.8" lengthAdjust="spacingAndGlyphs" xml:space="preserve" fill="#334155">──────────────────────────────────────────────────────────────────────────────</text>
    <rect x="41.6" y="178" width="4.8" height="22" fill="#334155"/>
    <text x="60.8" y="194" textLength="28.8" lengthAdjust="spacingAndGlyphs" xml:space="preserve" fill="#94a3b8">All</text>
    <text x="204.8" y="194" textLength="19.2" lengthAdjust="spacingAndGlyphs" xml:space="preserve" fill="#334155">╭─</text>
    <text x="233.6" y="194" textLength="57.6" lengthAdjust="spacingAndGlyphs" xml:space="preserve" fill="#334155" font-weight="600">Search</text>
    <text x="300.8" y="194" textLength="489.6" lengthAdjust="spacingAndGlyphs" xml:space="preserve" fill="#334155">──────────────────────────────────────────────────╮</text>
    <text x="60.8" y="216" textLength="48" lengthAdjust="spacingAndGlyphs" xml:space="preserve" fill-opacity="0.55">Games</text>
    <rect x="208.9" y="200" width="1.4" height="22" fill="#334155"/>
    <text x="224" y="216" textLength="9.6" lengthAdjust="spacingAndGlyphs" xml:space="preserve" fill="#60a5fa">❯</text>
    <text x="243.2" y="216" textLength="288" lengthAdjust="spacingAndGlyphs" xml:space="preserve" fill-opacity="0.55">Search or paste a magnet link…</text>
    <rect x="784.9" y="200" width="1.4" height="22" fill="#334155"/>
    <text x="60.8" y="238" textLength="57.6" lengthAdjust="spacingAndGlyphs" xml:space="preserve" fill-opacity="0.55">Movies</text>
    <text x="204.8" y="238" textLength="585.6" lengthAdjust="spacingAndGlyphs" xml:space="preserve" fill="#334155">╰───────────────────────────────────────────────────────────╯</text>
    <text x="60.8" y="260" textLength="19.2" lengthAdjust="spacingAndGlyphs" xml:space="preserve" fill-opacity="0.55">TV</text>
    <text x="60.8" y="282" textLength="48" lengthAdjust="spacingAndGlyphs" xml:space="preserve" fill-opacity="0.55">Anime</text>
    <text x="204.8" y="282" textLength="19.2" lengthAdjust="spacingAndGlyphs" xml:space="preserve" fill="#60a5fa">╭─</text>
    <text x="233.6" y="282" textLength="96" lengthAdjust="spacingAndGlyphs" xml:space="preserve" fill="#60a5fa" font-weight="600">Latest (5)</text>
    <text x="339.2" y="282" textLength="451.2" lengthAdjust="spacingAndGlyphs" xml:space="preserve" fill="#60a5fa">──────────────────────────────────────────────╮</text>
    <text x="60.8" y="304" textLength="86.4" lengthAdjust="spacingAndGlyphs" xml:space="preserve" fill-opacity="0.55">Magazines</text>
    <rect x="208.9" y="288" width="1.4" height="22" fill="#60a5fa"/>
    <text x="224" y="304" textLength="240" lengthAdjust="spacingAndGlyphs" xml:space="preserve" fill-opacity="0.55">newest across all sources</text>
    <rect x="784.9" y="288" width="1.4" height="22" fill="#60a5fa"/>
    <text x="60.8" y="326" textLength="115.2" lengthAdjust="spacingAndGlyphs" xml:space="preserve" fill-opacity="0.55">Applications</text>
    <rect x="208.9" y="310" width="1.4" height="22" fill="#60a5fa"/>
    <rect x="784.9" y="310" width="1.4" height="22" fill="#60a5fa"/>
    <text x="60.8" y="348" textLength="48" lengthAdjust="spacingAndGlyphs" xml:space="preserve" fill-opacity="0.55">Music</text>
    <rect x="208.9" y="332" width="1.4" height="22" fill="#60a5fa"/>
    <text x="252.8" y="348" textLength="9.6" lengthAdjust="spacingAndGlyphs" xml:space="preserve" fill-opacity="0.55" font-weight="600">#</text>
    <text x="272" y="348" textLength="38.4" lengthAdjust="spacingAndGlyphs" xml:space="preserve" fill-opacity="0.55" font-weight="600">Name</text>
    <text x="588.8" y="348" textLength="38.4" lengthAdjust="spacingAndGlyphs" xml:space="preserve" fill-opacity="0.55" font-weight="600">Size</text>
    <text x="646.4" y="348" textLength="76.8" lengthAdjust="spacingAndGlyphs" xml:space="preserve" fill-opacity="0.55" font-weight="600">Seed:Lch</text>
    <text x="742.4" y="348" textLength="28.8" lengthAdjust="spacingAndGlyphs" xml:space="preserve" fill-opacity="0.55" font-weight="600">Src</text>
    <rect x="784.9" y="332" width="1.4" height="22" fill="#60a5fa"/>
    <text x="60.8" y="370" textLength="48" lengthAdjust="spacingAndGlyphs" xml:space="preserve" fill-opacity="0.55">Audio</text>
    <rect x="208.9" y="354" width="1.4" height="22" fill="#60a5fa"/>
    <text x="224" y="370" textLength="9.6" lengthAdjust="spacingAndGlyphs" xml:space="preserve" fill="#60a5fa">❯</text>
    <text x="252.8" y="370" textLength="9.6" lengthAdjust="spacingAndGlyphs" xml:space="preserve" fill-opacity="0.55">1</text>
    <text x="272" y="370" textLength="249.6" lengthAdjust="spacingAndGlyphs" xml:space="preserve" fill="#60a5fa" font-weight="600">Oppenheimer (2023) [1080p…</text>
    <text x="560" y="370" textLength="67.2" lengthAdjust="spacingAndGlyphs" xml:space="preserve" fill-opacity="0.55">1.96 GB</text>
    <text x="656" y="370" textLength="67.2" lengthAdjust="spacingAndGlyphs" xml:space="preserve" fill="#34d399">1240:88</text>
    <text x="742.4" y="370" textLength="28.8" lengthAdjust="spacingAndGlyphs" xml:space="preserve" fill="#34d399">YTS</text>
    <rect x="784.9" y="354" width="1.4" height="22" fill="#60a5fa"/>
    <text x="60.8" y="392" textLength="38.4" lengthAdjust="spacingAndGlyphs" xml:space="preserve" fill-opacity="0.55">ROMs</text>
    <rect x="208.9" y="376" width="1.4" height="22" fill="#60a5fa"/>
    <text x="252.8" y="392" textLength="9.6" lengthAdjust="spacingAndGlyphs" xml:space="preserve" fill-opacity="0.55">2</text>
    <text x="272" y="392" textLength="249.6" lengthAdjust="spacingAndGlyphs" xml:space="preserve" fill-opacity="0.55">Dune: Part Two (2024) [21…</text>
    <text x="560" y="392" textLength="67.2" lengthAdjust="spacingAndGlyphs" xml:space="preserve" fill-opacity="0.55">7.82 GB</text>
    <text x="665.6" y="392" textLength="57.6" lengthAdjust="spacingAndGlyphs" xml:space="preserve" fill="#34d399">910:41</text>
    <text x="742.4" y="392" textLength="28.8" lengthAdjust="spacingAndGlyphs" xml:space="preserve" fill="#34d399" fill-opacity="0.55">YTS</text>
    <rect x="784.9" y="376" width="1.4" height="22" fill="#60a5fa"/>
    <text x="60.8" y="414" textLength="48" lengthAdjust="spacingAndGlyphs" xml:space="preserve" fill-opacity="0.55">Adult</text>
    <rect x="208.9" y="398" width="1.4" height="22" fill="#60a5fa"/>
    <text x="252.8" y="414" textLength="9.6" lengthAdjust="spacingAndGlyphs" xml:space="preserve" fill-opacity="0.55">3</text>
    <text x="272" y="414" textLength="249.6" lengthAdjust="spacingAndGlyphs" xml:space="preserve" fill-opacity="0.55">Breaking Bad S05E14 1080p…</text>
    <text x="560" y="414" textLength="67.2" lengthAdjust="spacingAndGlyphs" xml:space="preserve" fill-opacity="0.55">1.49 GB</text>
    <text x="665.6" y="414" textLength="57.6" lengthAdjust="spacingAndGlyphs" xml:space="preserve" fill="#34d399">540:31</text>
    <text x="732.8" y="414" textLength="38.4" lengthAdjust="spacingAndGlyphs" xml:space="preserve" fill="#fbbf24" fill-opacity="0.55">EZTV</text>
    <rect x="784.9" y="398" width="1.4" height="22" fill="#60a5fa"/>
    <rect x="208.9" y="420" width="1.4" height="22" fill="#60a5fa"/>
    <text x="252.8" y="436" textLength="9.6" lengthAdjust="spacingAndGlyphs" xml:space="preserve" fill-opacity="0.55">4</text>
    <text x="272" y="436" textLength="249.6" lengthAdjust="spacingAndGlyphs" xml:space="preserve" fill-opacity="0.55">[Erai-raws] Jujutsu Kaise…</text>
    <text x="560" y="436" textLength="67.2" lengthAdjust="spacingAndGlyphs" xml:space="preserve" fill-opacity="0.55">1.21 GB</text>
    <text x="665.6" y="436" textLength="57.6" lengthAdjust="spacingAndGlyphs" xml:space="preserve" fill="#34d399">320:12</text>
    <text x="732.8" y="436" textLength="38.4" lengthAdjust="spacingAndGlyphs" xml:space="preserve" fill="#ffffff" fill-opacity="0.55">NYAA</text>
    <rect x="784.9" y="420" width="1.4" height="22" fill="#60a5fa"/>
    <text x="60.8" y="458" textLength="86.4" lengthAdjust="spacingAndGlyphs" xml:space="preserve" fill-opacity="0.55">Downloads</text>
    <rect x="208.9" y="442" width="1.4" height="22" fill="#60a5fa"/>
    <text x="252.8" y="458" textLength="9.6" lengthAdjust="spacingAndGlyphs" xml:space="preserve" fill-opacity="0.55">5</text>
    <text x="272" y="458" textLength="192" lengthAdjust="spacingAndGlyphs" xml:space="preserve" fill-opacity="0.55">Frieren - 28 [1080p]</text>
    <text x="560" y="458" textLength="67.2" lengthAdjust="spacingAndGlyphs" xml:space="preserve" fill-opacity="0.55">1.30 GB</text>
    <text x="713.6" y="458" textLength="9.6" lengthAdjust="spacingAndGlyphs" xml:space="preserve" fill-opacity="0.55">-</text>
    <text x="742.4" y="458" textLength="28.8" lengthAdjust="spacingAndGlyphs" xml:space="preserve" fill="#b9a7e6" fill-opacity="0.55">SUB</text>
    <rect x="784.9" y="442" width="1.4" height="22" fill="#60a5fa"/>
    <text x="60.8" y="480" textLength="67.2" lengthAdjust="spacingAndGlyphs" xml:space="preserve" fill-opacity="0.55">Seeding</text>
    <text x="204.8" y="480" textLength="585.6" lengthAdjust="spacingAndGlyphs" xml:space="preserve" fill="#60a5fa">╰───────────────────────────────────────────────────────────╯</text>
    <text x="41.6" y="502" textLength="38.4" lengthAdjust="spacingAndGlyphs" xml:space="preserve" fill="#94a3b8">↑↓←→</text>
    <text x="89.6" y="502" textLength="38.4" lengthAdjust="spacingAndGlyphs" xml:space="preserve" fill-opacity="0.55">Move</text>
    <text x="156.8" y="502" textLength="9.6" lengthAdjust="spacingAndGlyphs" xml:space="preserve" fill="#94a3b8">d</text>
    <text x="176" y="502" textLength="76.8" lengthAdjust="spacingAndGlyphs" xml:space="preserve" fill-opacity="0.55">Download</text>
    <text x="281.6" y="502" textLength="9.6" lengthAdjust="spacingAndGlyphs" xml:space="preserve" fill="#94a3b8">y</text>
    <text x="300.8" y="502" textLength="38.4" lengthAdjust="spacingAndGlyphs" xml:space="preserve" fill-opacity="0.55">Copy</text>
    <text x="368" y="502" textLength="9.6" lengthAdjust="spacingAndGlyphs" xml:space="preserve" fill="#94a3b8">s</text>
    <text x="387.2" y="502" textLength="38.4" lengthAdjust="spacingAndGlyphs" xml:space="preserve" fill-opacity="0.55">Sort</text>
    <text x="454.4" y="502" textLength="9.6" lengthAdjust="spacingAndGlyphs" xml:space="preserve" fill="#94a3b8">/</text>
    <text x="473.6" y="502" textLength="57.6" lengthAdjust="spacingAndGlyphs" xml:space="preserve" fill-opacity="0.55">Search</text>
    <text x="560" y="502" textLength="28.8" lengthAdjust="spacingAndGlyphs" xml:space="preserve" fill="#94a3b8">tab</text>
    <text x="598.4" y="502" textLength="57.6" lengthAdjust="spacingAndGlyphs" xml:space="preserve" fill-opacity="0.55">Switch</text>
    <text x="684.8" y="502" textLength="9.6" lengthAdjust="spacingAndGlyphs" xml:space="preserve" fill="#94a3b8">?</text>
    <text x="704" y="502" textLength="38.4" lengthAdjust="spacingAndGlyphs" xml:space="preserve" fill-opacity="0.55">Keys</text>
  </g>
</svg>