<?xml version="1.0" encoding="UTF-8"?>
<svg xmlns="http://www.w3.org/2000/svg" width="832" height="562" viewBox="0 0 832 562" style="max-width: 832px; width: 100%; height: auto;" role="img">
  <rect width="100%" height="100%" rx="14" fill="#0a0810"/>
  <rect x="0.5" y="0.5" width="831" height="561" rx="14" fill="none" stroke="#2d2b31" stroke-width="1"/>
  <text x="416" y="23" text-anchor="middle" font-family='ui-monospace, "Cascadia Mono", "SF Mono", Menlo, Consolas, "DejaVu Sans Mono", monospace' font-size="13" fill="#8a8a8a">NinjaBits</text>
  <g font-family='ui-monospace, "Cascadia Mono", "SF Mono", Menlo, Consolas, "DejaVu Sans Mono", monospace' font-size="16" fill="#ddd8ea">
    <text x="41.6" y="84" textLength="9.6" lengthAdjust="spacingAndGlyphs" xml:space="preserve" fill="#0052ff" font-weight="600">░</text>
    <text x="51.2" y="84" textLength="9.6" lengthAdjust="spacingAndGlyphs" xml:space="preserve" fill="#0255ff" font-weight="600">▒</text>
    <text x="60.8" y="84" textLength="9.6" lengthAdjust="spacingAndGlyphs" xml:space="preserve" fill="#0458ff" font-weight="600">░</text>
    <rect x="70.4" y="68" width="9.6" height="11" fill="#065aff"/>
    <rect x="80" y="68" width="9.6" height="11" fill="#085dff"/>
    <rect x="89.6" y="68" width="9.6" height="11" fill="#0a60ff"/>
    <rect x="99.2" y="79" width="9.6" height="11" fill="#0d63ff"/>
    <rect x="118.4" y="68" width="9.6" height="11" fill="#1168ff"/>
    <rect x="128" y="68" width="9.6" height="11" fill="#136bff"/>
    <rect x="137.6" y="68" width="9.6" height="11" fill="#156eff"/>
    <text x="156.8" y="84" textLength="9.6" lengthAdjust="spacingAndGlyphs" xml:space="preserve" fill="#1974ff" font-weight="600">░</text>
    <text x="166.4" y="84" textLength="9.6" lengthAdjust="spacingAndGlyphs" xml:space="preserve" fill="#1b77ff" font-weight="600">▒</text>
    <text x="176" y="84" textLength="9.6" lengthAdjust="spacingAndGlyphs" xml:space="preserve" fill="#1d79ff" font-weight="600">░</text>
    <rect x="185.6" y="68" width="9.6" height="11" fill="#1f7cff"/>
    <rect x="195.2" y="68" width="9.6" height="11" fill="#217fff"/>
    <rect x="204.8" y="68" width="9.6" height="11" fill="#2382ff"/>
    <rect x="214.4" y="79" width="9.6" height="11" fill="#2685ff"/>
    <rect x="262.4" y="68" width="9.6" height="22" fill="#3393ff"/>
    <rect x="272" y="68" width="9.6" height="22" fill="#3897ff"/>
    <rect x="281.6" y="68" width="9.6" height="22" fill="#3d9aff"/>
    <rect x="300.8" y="68" width="9.6" height="22" fill="#48a1ff"/>
    <rect x="310.4" y="68" width="9.6" height="22" fill="#4da4ff"/>
    <rect x="320" y="68" width="9.6" height="22" fill="#52a8ff"/>
    <rect x="329.6" y="68" width="9.6" height="11" fill="#58abff"/>
    <rect x="339.2" y="68" width="9.6" height="11" fill="#5dafff"/>
    <rect x="348.8" y="68" width="9.6" height="11" fill="#62b2ff"/>
    <rect x="358.4" y="79" width="9.6" height="11" fill="#67b5ff"/>
    <text x="377.6" y="84" textLength="9.6" lengthAdjust="spacingAndGlyphs" xml:space="preserve" fill="#72bcff" font-weight="600">░</text>
    <text x="387.2" y="84" textLength="9.6" lengthAdjust="spacingAndGlyphs" xml:space="preserve" fill="#77c0ff" font-weight="600">▒</text>
    <text x="396.8" y="84" textLength="9.6" lengthAdjust="spacingAndGlyphs" xml:space="preserve" fill="#7cc3ff" font-weight="600">░</text>
    <rect x="406.4" y="68" width="9.6" height="11" fill="#82c6ff"/>
    <rect x="416" y="68" width="9.6" height="11" fill="#87caff"/>
    <rect x="425.6" y="68" width="9.6" height="11" fill="#8ccdff"/>
    <rect x="435.2" y="79" width="9.6" height="11" fill="#91d1ff"/>
    <rect x="454.4" y="68" width="9.6" height="11" fill="#9cd7ff"/>
    <rect x="464" y="68" width="9.6" height="11" fill="#a1d9ff"/>
    <rect x="473.6" y="68" width="9.6" height="11" fill="#a6dbff"/>
    <rect x="492.8" y="68" width="9.6" height="11" fill="#b0dfff"/>
    <rect x="502.4" y="68" width="9.6" height="11" fill="#b5e1ff"/>
    <text x="512" y="84" textLength="9.6" lengthAdjust="spacingAndGlyphs" xml:space="preserve" fill="#bae3ff" font-weight="600">░</text>
    <text x="521.6" y="84" textLength="9.6" lengthAdjust="spacingAndGlyphs" xml:space="preserve" fill="#bfe5ff" font-weight="600">▒</text>
    <text x="531.2" y="84" textLength="9.6" lengthAdjust="spacingAndGlyphs" xml:space="preserve" fill="#c3e7ff" font-weight="600">░</text>
    <rect x="540.8" y="68" width="9.6" height="11" fill="#c8e9ff"/>
    <rect x="550.4" y="68" width="9.6" height="11" fill="#cdebff"/>
    <rect x="560" y="68" width="9.6" height="11" fill="#d2edff"/>
    <rect x="608" y="68" width="9.6" height="11" fill="#ebf7ff"/>
    <rect x="617.6" y="68" width="9.6" height="11" fill="#f0f9ff"/>
    <rect x="627.2" y="68" width="9.6" height="11" fill="#f5fbff"/>
    <rect x="636.8" y="68" width="9.6" height="11" fill="#fafdff"/>
    <rect x="646.4" y="68" width="9.6" height="11" fill="#ffffff"/>
    <text x="41.6" y="106" textLength="9.6" lengthAdjust="spacingAndGlyphs" xml:space="preserve" fill="#0052ff" font-weight="600">▒</text>
    <text x="51.2" y="106" textLength="9.6" lengthAdjust="spacingAndGlyphs" xml:space="preserve" fill="#0255ff" font-weight="600">░</text>
    <rect x="60.8" y="90" width="9.6" height="22" fill="#0458ff"/>
    <rect x="99.2" y="90" width="9.6" height="22" fill="#0d63ff"/>
    <text x="118.4" y="106" textLength="9.6" lengthAdjust="spacingAndGlyphs" xml:space="preserve" fill="#1168ff" font-weight="600">░</text>
    <rect x="128" y="90" width="9.6" height="22" fill="#136bff"/>
    <rect x="137.6" y="90" width="9.6" height="22" fill="#156eff"/>
    <text x="156.8" y="106" textLength="9.6" lengthAdjust="spacingAndGlyphs" xml:space="preserve" fill="#1974ff" font-weight="600">▒</text>
    <text x="166.4" y="106" textLength="9.6" lengthAdjust="spacingAndGlyphs" xml:space="preserve" fill="#1b77ff" font-weight="600">░</text>
    <rect x="176" y="90" width="9.6" height="22" fill="#1d79ff"/>
    <rect x="214.4" y="90" width="9.6" height="22" fill="#2685ff"/>
    <rect x="262.4" y="90" width="9.6" height="22" fill="#3393ff"/>
    <rect x="272" y="90" width="9.6" height="22" fill="#3897ff"/>
    <text x="281.6" y="106" textLength="9.6" lengthAdjust="spacingAndGlyphs" xml:space="preserve" fill="#3d9aff" font-weight="600">░</text>
    <text x="300.8" y="106" textLength="9.6" lengthAdjust="spacingAndGlyphs" xml:space="preserve" fill="#48a1ff" font-weight="600">░</text>
    <rect x="310.4" y="90" width="9.6" height="22" fill="#4da4ff"/>
    <rect x="320" y="90" width="9.6" height="22" fill="#52a8ff"/>
    <rect x="358.4" y="90" width="9.6" height="22" fill="#67b5ff"/>
    <text x="377.6" y="106" textLength="9.6" lengthAdjust="spacingAndGlyphs" xml:space="preserve" fill="#72bcff" font-weight="600">▒</text>
    <text x="387.2" y="106" textLength="9.6" lengthAdjust="spacingAndGlyphs" xml:space="preserve" fill="#77c0ff" font-weight="600">░</text>
    <rect x="396.8" y="90" width="9.6" height="22" fill="#7cc3ff"/>
    <rect x="435.2" y="90" width="9.6" height="22" fill="#91d1ff"/>
    <text x="454.4" y="106" textLength="9.6" lengthAdjust="spacingAndGlyphs" xml:space="preserve" fill="#9cd7ff" font-weight="600">░</text>
    <rect x="464" y="90" width="9.6" height="22" fill="#a1d9ff"/>
    <rect x="473.6" y="90" width="9.6" height="22" fill="#a6dbff"/>
    <text x="512" y="106" textLength="9.6" lengthAdjust="spacingAndGlyphs" xml:space="preserve" fill="#bae3ff" font-weight="600">▒</text>
    <text x="521.6" y="106" textLength="9.6" lengthAdjust="spacingAndGlyphs" xml:space="preserve" fill="#bfe5ff" font-weight="600">░</text>
    <rect x="531.2" y="90" width="9.6" height="22" fill="#c3e7ff"/>
    <rect x="598.4" y="90" width="9.6" height="22" fill="#e6f5ff"/>
    <rect x="608" y="101" width="9.6" height="11" fill="#ebf7ff"/>
    <rect x="617.6" y="101" width="9.6" height="11" fill="#f0f9ff"/>
    <rect x="627.2" y="101" width="9.6" height="11" fill="#f5fbff"/>
    <rect x="636.8" y="101" width="9.6" height="11" fill="#fafdff"/>
    <rect x="646.4" y="101" width="9.6" height="11" fill="#ffffff"/>
    <text x="41.6" y="128" textLength="9.6" lengthAdjust="spacingAndGlyphs" xml:space="preserve" fill="#0052ff" font-weight="600">░</text>
    <rect x="51.2" y="112" width="9.6" height="22" fill="#0255ff"/>
    <rect x="60.8" y="112" width="9.6" height="22" fill="#0458ff"/>
    <rect x="99.2" y="112" width="9.6" height="22" fill="#0d63ff"/>
    <text x="118.4" y="128" textLength="9.6" lengthAdjust="spacingAndGlyphs" xml:space="preserve" fill="#1168ff" font-weight="600">▒</text>
    <text x="128" y="128" textLength="9.6" lengthAdjust="spacingAndGlyphs" xml:space="preserve" fill="#136bff" font-weight="600">░</text>
    <rect x="137.6" y="112" width="9.6" height="22" fill="#156eff"/>
    <text x="156.8" y="128" textLength="9.6" lengthAdjust="spacingAndGlyphs" xml:space="preserve" fill="#1974ff" font-weight="600">░</text>
    <rect x="166.4" y="112" width="9.6" height="22" fill="#1b77ff"/>
    <rect x="176" y="112" width="9.6" height="22" fill="#1d79ff"/>
    <rect x="214.4" y="112" width="9.6" height="22" fill="#2685ff"/>
    <rect x="262.4" y="112" width="9.6" height="22" fill="#3393ff"/>
    <text x="272" y="128" textLength="9.6" lengthAdjust="spacingAndGlyphs" xml:space="preserve" fill="#3897ff" font-weight="600">░</text>
    <text x="281.6" y="128" textLength="9.6" lengthAdjust="spacingAndGlyphs" xml:space="preserve" fill="#3d9aff" font-weight="600">▒</text>
    <text x="300.8" y="128" textLength="9.6" lengthAdjust="spacingAndGlyphs" xml:space="preserve" fill="#48a1ff" font-weight="600">▒</text>
    <text x="310.4" y="128" textLength="9.6" lengthAdjust="spacingAndGlyphs" xml:space="preserve" fill="#4da4ff" font-weight="600">░</text>
    <rect x="320" y="112" width="9.6" height="22" fill="#52a8ff"/>
    <rect x="339.2" y="112" width="9.6" height="11" fill="#5dafff"/>
    <rect x="348.8" y="112" width="9.6" height="11" fill="#62b2ff"/>
    <rect x="358.4" y="112" width="9.6" height="22" fill="#67b5ff"/>
    <text x="377.6" y="128" textLength="9.6" lengthAdjust="spacingAndGlyphs" xml:space="preserve" fill="#72bcff" font-weight="600">░</text>
    <rect x="387.2" y="112" width="9.6" height="22" fill="#77c0ff"/>
    <rect x="396.8" y="112" width="9.6" height="22" fill="#7cc3ff"/>
    <rect x="416" y="112" width="9.6" height="11" fill="#87caff"/>
    <rect x="425.6" y="112" width="9.6" height="11" fill="#8ccdff"/>
    <rect x="435.2" y="123" width="9.6" height="11" fill="#91d1ff"/>
    <text x="454.4" y="128" textLength="9.6" lengthAdjust="spacingAndGlyphs" xml:space="preserve" fill="#9cd7ff" font-weight="600">▒</text>
    <text x="464" y="128" textLength="9.6" lengthAdjust="spacingAndGlyphs" xml:space="preserve" fill="#a1d9ff" font-weight="600">░</text>
    <rect x="473.6" y="112" width="9.6" height="22" fill="#a6dbff"/>
    <text x="512" y="128" textLength="9.6" lengthAdjust="spacingAndGlyphs" xml:space="preserve" fill="#bae3ff" font-weight="600">░</text>
    <rect x="521.6" y="112" width="9.6" height="22" fill="#bfe5ff"/>
    <rect x="531.2" y="112" width="9.6" height="22" fill="#c3e7ff"/>
    <rect x="627.2" y="112" width="9.6" height="22" fill="#f5fbff"/>
    <text x="646.4" y="128" textLength="9.6" lengthAdjust="spacingAndGlyphs" xml:space="preserve" fill="#ffffff" font-weight="600">▒</text>
    <rect x="41.6" y="134" width="9.6" height="22" fill="#0052ff"/>
    <rect x="51.2" y="134" width="9.6" height="22" fill="#0255ff"/>
    <rect x="60.8" y="134" width="9.6" height="22" fill="#0458ff"/>
    <rect x="99.2" y="134" width="9.6" height="22" fill="#0d63ff"/>
    <text x="118.4" y="150" textLength="9.6" lengthAdjust="spacingAndGlyphs" xml:space="preserve" fill="#1168ff" font-weight="600">░</text>
    <text x="128" y="150" textLength="9.6" lengthAdjust="spacingAndGlyphs" xml:space="preserve" fill="#136bff" font-weight="600">▒</text>
    <text x="137.6" y="150" textLength="9.6" lengthAdjust="spacingAndGlyphs" xml:space="preserve" fill="#156eff" font-weight="600">░</text>
    <rect x="156.8" y="134" width="9.6" height="22" fill="#1974ff"/>
    <rect x="166.4" y="134" width="9.6" height="22" fill="#1b77ff"/>
    <rect x="176" y="134" width="9.6" height="22" fill="#1d79ff"/>
    <rect x="214.4" y="134" width="9.6" height="22" fill="#2685ff"/>
    <rect x="233.6" y="145" width="9.6" height="11" fill="#2a8aff"/>
    <rect x="243.2" y="145" width="9.6" height="11" fill="#2c8dff"/>
    <rect x="252.8" y="145" width="9.6" height="11" fill="#2e90ff"/>
    <text x="262.4" y="150" textLength="9.6" lengthAdjust="spacingAndGlyphs" xml:space="preserve" fill="#3393ff" font-weight="600">░</text>
    <text x="272" y="150" textLength="9.6" lengthAdjust="spacingAndGlyphs" xml:space="preserve" fill="#3897ff" font-weight="600">▒</text>
    <text x="281.6" y="150" textLength="9.6" lengthAdjust="spacingAndGlyphs" xml:space="preserve" fill="#3d9aff" font-weight="600">░</text>
    <text x="300.8" y="150" textLength="9.6" lengthAdjust="spacingAndGlyphs" xml:space="preserve" fill="#48a1ff" font-weight="600">░</text>
    <text x="310.4" y="150" textLength="9.6" lengthAdjust="spacingAndGlyphs" xml:space="preserve" fill="#4da4ff" font-weight="600">▒</text>
    <text x="320" y="150" textLength="9.6" lengthAdjust="spacingAndGlyphs" xml:space="preserve" fill="#52a8ff" font-weight="600">░</text>
    <rect x="358.4" y="134" width="9.6" height="22" fill="#67b5ff"/>
    <rect x="377.6" y="134" width="9.6" height="22" fill="#72bcff"/>
    <rect x="387.2" y="134" width="9.6" height="22" fill="#77c0ff"/>
    <rect x="396.8" y="134" width="9.6" height="22" fill="#7cc3ff"/>
    <rect x="406.4" y="145" width="9.6" height="11" fill="#82c6ff"/>
    <rect x="416" y="145" width="9.6" height="11" fill="#87caff"/>
    <rect x="425.6" y="145" width="9.6" height="11" fill="#8ccdff"/>
    <rect x="435.2" y="134" width="9.6" height="11" fill="#91d1ff"/>
    <text x="454.4" y="150" textLength="9.6" lengthAdjust="spacingAndGlyphs" xml:space="preserve" fill="#9cd7ff" font-weight="600">░</text>
    <text x="464" y="150" textLength="9.6" lengthAdjust="spacingAndGlyphs" xml:space="preserve" fill="#a1d9ff" font-weight="600">▒</text>
    <text x="473.6" y="150" textLength="9.6" lengthAdjust="spacingAndGlyphs" xml:space="preserve" fill="#a6dbff" font-weight="600">░</text>
    <rect x="512" y="134" width="9.6" height="22" fill="#bae3ff"/>
    <rect x="521.6" y="134" width="9.6" height="22" fill="#bfe5ff"/>
    <rect x="531.2" y="134" width="9.6" height="22" fill="#c3e7ff"/>
    <rect x="579.2" y="145" width="9.6" height="11" fill="#dcf1ff"/>
    <rect x="588.8" y="145" width="9.6" height="11" fill="#e1f3ff"/>
    <rect x="598.4" y="145" width="9.6" height="11" fill="#e6f5ff"/>
    <rect x="608" y="145" width="9.6" height="11" fill="#ebf7ff"/>
    <rect x="617.6" y="145" width="9.6" height="11" fill="#f0f9ff"/>
    <text x="636.8" y="150" textLength="9.6" lengthAdjust="spacingAndGlyphs" xml:space="preserve" fill="#fafdff" font-weight="600">▒</text>
    <text x="646.4" y="150" textLength="9.6" lengthAdjust="spacingAndGlyphs" xml:space="preserve" fill="#ffffff" font-weight="600">░</text>
    <text x="41.6" y="172" textLength="748.8" lengthAdjust="spacingAndGlyphs" xml:space="preserve" fill="#334155">──────────────────────────────────────────────────────────────────────────────</text>
    <rect x="41.6" y="200" width="4.8" height="22" fill="#334155"/>
    <text x="60.8" y="216" textLength="28.8" lengthAdjust="spacingAndGlyphs" xml:space="preserve" fill="#94a3b8">All</text>
    <text x="204.8" y="216" textLength="19.2" lengthAdjust="spacingAndGlyphs" xml:space="preserve" fill="#334155">╭─</text>
    <text x="233.6" y="216" textLength="57.6" lengthAdjust="spacingAndGlyphs" xml:space="preserve" fill="#334155" font-weight="600">Search</text>
    <text x="300.8" y="216" textLength="489.6" lengthAdjust="spacingAndGlyphs" xml:space="preserve" fill="#334155">──────────────────────────────────────────────────╮</text>
    <text x="60.8" y="238" textLength="48" lengthAdjust="spacingAndGlyphs" xml:space="preserve" fill-opacity="0.55">Games</text>
    <rect x="208.9" y="222" width="1.4" height="22" fill="#334155"/>
    <text x="224" y="238" textLength="9.6" lengthAdjust="spacingAndGlyphs" xml:space="preserve" fill="#60a5fa">❯</text>
    <text x="243.2" y="238" textLength="288" lengthAdjust="spacingAndGlyphs" xml:space="preserve" fill-opacity="0.55">Search or paste a magnet link…</text>
    <rect x="784.9" y="222" width="1.4" height="22" fill="#334155"/>
    <text x="60.8" y="260" textLength="57.6" lengthAdjust="spacingAndGlyphs" xml:space="preserve" fill-opacity="0.55">Movies</text>
    <text x="204.8" y="260" textLength="585.6" lengthAdjust="spacingAndGlyphs" xml:space="preserve" fill="#334155">╰───────────────────────────────────────────────────────────╯</text>
    <text x="60.8" y="282" textLength="19.2" lengthAdjust="spacingAndGlyphs" xml:space="preserve" fill-opacity="0.55">TV</text>
    <text x="60.8" y="304" textLength="48" lengthAdjust="spacingAndGlyphs" xml:space="preserve" fill-opacity="0.55">Anime</text>
    <text x="204.8" y="304" textLength="19.2" lengthAdjust="spacingAndGlyphs" xml:space="preserve" fill="#60a5fa">╭─</text>
    <text x="233.6" y="304" textLength="96" lengthAdjust="spacingAndGlyphs" xml:space="preserve" fill="#60a5fa" font-weight="600">Latest (5)</text>
    <text x="339.2" y="304" textLength="451.2" lengthAdjust="spacingAndGlyphs" xml:space="preserve" fill="#60a5fa">──────────────────────────────────────────────╮</text>
    <text x="60.8" y="326" textLength="86.4" lengthAdjust="spacingAndGlyphs" xml:space="preserve" fill-opacity="0.55">Magazines</text>
    <rect x="208.9" y="310" width="1.4" height="22" fill="#60a5fa"/>
    <text x="224" y="326" textLength="240" lengthAdjust="spacingAndGlyphs" xml:space="preserve" fill-opacity="0.55">newest across all sources</text>
    <rect x="784.9" y="310" width="1.4" height="22" fill="#60a5fa"/>
    <text x="60.8" y="348" textLength="115.2" lengthAdjust="spacingAndGlyphs" xml:space="preserve" fill-opacity="0.55">Applications</text>
    <rect x="208.9" y="332" width="1.4" height="22" fill="#60a5fa"/>
    <rect x="784.9" y="332" width="1.4" height="22" fill="#60a5fa"/>
    <text x="60.8" y="370" textLength="48" lengthAdjust="spacingAndGlyphs" xml:space="preserve" fill-opacity="0.55">Music</text>
    <rect x="208.9" y="354" width="1.4" height="22" fill="#60a5fa"/>
    <text x="252.8" y="370" textLength="9.6" lengthAdjust="spacingAndGlyphs" xml:space="preserve" fill-opacity="0.55" font-weight="600">#</text>
    <text x="272" y="370" textLength="38.4" lengthAdjust="spacingAndGlyphs" xml:space="preserve" fill-opacity="0.55" font-weight="600">Name</text>
    <text x="588.8" y="370" textLength="38.4" lengthAdjust="spacingAndGlyphs" xml:space="preserve" fill-opacity="0.55" font-weight="600">Size</text>
    <text x="646.4" y="370" textLength="76.8" lengthAdjust="spacingAndGlyphs" xml:space="preserve" fill-opacity="0.55" font-weight="600">Seed:Lch</text>
    <text x="742.4" y="370" textLength="28.8" lengthAdjust="spacingAndGlyphs" xml:space="preserve" fill-opacity="0.55" font-weight="600">Src</text>
    <rect x="784.9" y="354" width="1.4" height="22" fill="#60a5fa"/>
    <text x="60.8" y="392" textLength="48" lengthAdjust="spacingAndGlyphs" xml:space="preserve" fill-opacity="0.55">Audio</text>
    <rect x="208.9" y="376" width="1.4" height="22" fill="#60a5fa"/>
    <text x="224" y="392" textLength="9.6" lengthAdjust="spacingAndGlyphs" xml:space="preserve" fill="#60a5fa">❯</text>
    <text x="252.8" y="392" textLength="9.6" lengthAdjust="spacingAndGlyphs" xml:space="preserve" fill-opacity="0.55">1</text>
    <text x="272" y="392" textLength="249.6" lengthAdjust="spacingAndGlyphs" xml:space="preserve" fill="#60a5fa" font-weight="600">Oppenheimer (2023) [1080p…</text>
    <text x="560" y="392" textLength="67.2" lengthAdjust="spacingAndGlyphs" xml:space="preserve" fill-opacity="0.55">1.96 GB</text>
    <text x="656" y="392" textLength="67.2" lengthAdjust="spacingAndGlyphs" xml:space="preserve" fill="#34d399">1240:88</text>
    <text x="742.4" y="392" textLength="28.8" lengthAdjust="spacingAndGlyphs" xml:space="preserve" fill="#34d399">YTS</text>
    <rect x="784.9" y="376" width="1.4" height="22" fill="#60a5fa"/>
    <text x="60.8" y="414" textLength="38.4" lengthAdjust="spacingAndGlyphs" xml:space="preserve" fill-opacity="0.55">ROMs</text>
    <rect x="208.9" y="398" width="1.4" height="22" fill="#60a5fa"/>
    <text x="252.8" y="414" textLength="9.6" lengthAdjust="spacingAndGlyphs" xml:space="preserve" fill-opacity="0.55">2</text>
    <text x="272" y="414" textLength="249.6" lengthAdjust="spacingAndGlyphs" xml:space="preserve" fill-opacity="0.55">Dune: Part Two (2024) [21…</text>
    <text x="560" y="414" textLength="67.2" lengthAdjust="spacingAndGlyphs" xml:space="preserve" fill-opacity="0.55">7.82 GB</text>
    <text x="665.6" y="414" textLength="57.6" lengthAdjust="spacingAndGlyphs" xml:space="preserve" fill="#34d399">910:41</text>
    <text x="742.4" y="414" textLength="28.8" lengthAdjust="spacingAndGlyphs" xml:space="preserve" fill="#34d399" fill-opacity="0.55">YTS</text>
    <rect x="784.9" y="398" width="1.4" height="22" fill="#60a5fa"/>
    <text x="60.8" y="436" textLength="48" lengthAdjust="spacingAndGlyphs" xml:space="preserve" fill-opacity="0.55">Adult</text>
    <rect x="208.9" y="420" width="1.4" height="22" fill="#60a5fa"/>
    <text x="252.8" y="436" textLength="9.6" lengthAdjust="spacingAndGlyphs" xml:space="preserve" fill-opacity="0.55">3</text>
    <text x="272" y="436" textLength="249.6" lengthAdjust="spacingAndGlyphs" xml:space="preserve" fill-opacity="0.55">Breaking Bad S05E14 1080p…</text>
    <text x="560" y="436" textLength="67.2" lengthAdjust="spacingAndGlyphs" xml:space="preserve" fill-opacity="0.55">1.49 GB</text>
    <text x="665.6" y="436" textLength="57.6" lengthAdjust="spacingAndGlyphs" xml:space="preserve" fill="#34d399">540:31</text>
    <text x="732.8" y="436" textLength="38.4" lengthAdjust="spacingAndGlyphs" xml:space="preserve" fill="#fbbf24" fill-opacity="0.55">EZTV</text>
    <rect x="784.9" y="420" width="1.4" height="22" fill="#60a5fa"/>
    <rect x="208.9" y="442" width="1.4" height="22" fill="#60a5fa"/>
    <text x="252.8" y="458" textLength="9.6" lengthAdjust="spacingAndGlyphs" xml:space="preserve" fill-opacity="0.55">4</text>
    <text x="272" y="458" textLength="249.6" lengthAdjust="spacingAndGlyphs" xml:space="preserve" fill-opacity="0.55">[Erai-raws] Jujutsu Kaise…</text>
    <text x="560" y="458" textLength="67.2" lengthAdjust="spacingAndGlyphs" xml:space="preserve" fill-opacity="0.55">1.21 GB</text>
    <text x="665.6" y="458" textLength="57.6" lengthAdjust="spacingAndGlyphs" xml:space="preserve" fill="#34d399">320:12</text>
    <text x="732.8" y="458" textLength="38.4" lengthAdjust="spacingAndGlyphs" xml:space="preserve" fill="#ffffff" fill-opacity="0.55">NYAA</text>
    <rect x="784.9" y="442" width="1.4" height="22" fill="#60a5fa"/>
    <text x="60.8" y="480" textLength="86.4" lengthAdjust="spacingAndGlyphs" xml:space="preserve" fill-opacity="0.55">Downloads</text>
    <rect x="208.9" y="464" width="1.4" height="22" fill="#60a5fa"/>
    <text x="252.8" y="480" textLength="9.6" lengthAdjust="spacingAndGlyphs" xml:space="preserve" fill-opacity="0.55">5</text>
    <text x="272" y="480" textLength="192" lengthAdjust="spacingAndGlyphs" xml:space="preserve" fill-opacity="0.55">Frieren - 28 [1080p]</text>
    <text x="560" y="480" textLength="67.2" lengthAdjust="spacingAndGlyphs" xml:space="preserve" fill-opacity="0.55">1.30 GB</text>
    <text x="713.6" y="480" textLength="9.6" lengthAdjust="spacingAndGlyphs" xml:space="preserve" fill-opacity="0.55">-</text>
    <text x="742.4" y="480" textLength="28.8" lengthAdjust="spacingAndGlyphs" xml:space="preserve" fill="#b9a7e6" fill-opacity="0.55">SUB</text>
    <rect x="784.9" y="464" width="1.4" height="22" fill="#60a5fa"/>
    <text x="60.8" y="502" textLength="67.2" lengthAdjust="spacingAndGlyphs" xml:space="preserve" fill-opacity="0.55">Seeding</text>
    <text x="204.8" y="502" textLength="585.6" lengthAdjust="spacingAndGlyphs" xml:space="preserve" fill="#60a5fa">╰───────────────────────────────────────────────────────────╯</text>
    <text x="41.6" y="524" textLength="38.4" lengthAdjust="spacingAndGlyphs" xml:space="preserve" fill="#94a3b8">↑↓←→</text>
    <text x="89.6" y="524" textLength="38.4" lengthAdjust="spacingAndGlyphs" xml:space="preserve" fill-opacity="0.55">Move</text>
    <text x="156.8" y="524" textLength="9.6" lengthAdjust="spacingAndGlyphs" xml:space="preserve" fill="#94a3b8">d</text>
    <text x="176" y="524" textLength="76.8" lengthAdjust="spacingAndGlyphs" xml:space="preserve" fill-opacity="0.55">Download</text>
    <text x="281.6" y="524" textLength="9.6" lengthAdjust="spacingAndGlyphs" xml:space="preserve" fill="#94a3b8">y</text>
    <text x="300.8" y="524" textLength="38.4" lengthAdjust="spacingAndGlyphs" xml:space="preserve" fill-opacity="0.55">Copy</text>
    <text x="368" y="524" textLength="9.6" lengthAdjust="spacingAndGlyphs" xml:space="preserve" fill="#94a3b8">s</text>
    <text x="387.2" y="524" textLength="38.4" lengthAdjust="spacingAndGlyphs" xml:space="preserve" fill-opacity="0.55">Sort</text>
    <text x="454.4" y="524" textLength="9.6" lengthAdjust="spacingAndGlyphs" xml:space="preserve" fill="#94a3b8">/</text>
    <text x="473.6" y="524" textLength="57.6" lengthAdjust="spacingAndGlyphs" xml:space="preserve" fill-opacity="0.55">Search</text>
    <text x="560" y="524" textLength="28.8" lengthAdjust="spacingAndGlyphs" xml:space="preserve" fill="#94a3b8">tab</text>
    <text x="598.4" y="524" textLength="57.6" lengthAdjust="spacingAndGlyphs" xml:space="preserve" fill-opacity="0.55">Switch</text>
    <text x="684.8" y="524" textLength="9.6" lengthAdjust="spacingAndGlyphs" xml:space="preserve" fill="#94a3b8">?</text>
    <text x="704" y="524" textLength="38.4" lengthAdjust="spacingAndGlyphs" xml:space="preserve" fill-opacity="0.55">Keys</text>
  </g>
</svg>