<?xml version="1.0" encoding="UTF-8"?>
<svg xmlns="http://www.w3.org/2000/svg" width="832" height="540" viewBox="0 0 832 540" style="max-width: 832px; width: 100%; height: auto;" role="img">
  <rect width="100%" height="100%" rx="14" fill="#0a0810"/>
  <rect x="0.5" y="0.5" width="831" height="539" rx="14" fill="none" stroke="#2d2b31" stroke-width="1"/>
  <text x="416" y="23" text-anchor="middle" font-family='ui-monospace, "Cascadia Mono", "SF Mono", Menlo, Consolas, "DejaVu Sans Mono", monospace' font-size="13" fill="#8a8a8a">NinjaBits</text>
  <g font-family='ui-monospace, "Cascadia Mono", "SF Mono", Menlo, Consolas, "DejaVu Sans Mono", monospace' font-size="16" fill="#ddd8ea">
    <rect x="41.6" y="68" width="9.6" height="22" fill="#0052ff"/>
    <rect x="51.2" y="68" width="9.6" height="22" fill="#0255ff"/>
    <rect x="60.8" y="68" width="9.6" height="22" fill="#0457ff"/>
    <rect x="70.4" y="68" width="9.6" height="11" fill="#065aff"/>
    <rect x="80" y="68" width="9.6" height="11" fill="#085cff"/>
    <rect x="89.6" y="68" width="9.6" height="22" fill="#0a5fff"/>
    <rect x="99.2" y="68" width="9.6" height="22" fill="#0c62ff"/>
    <rect x="108.8" y="68" width="9.6" height="22" fill="#0e64ff"/>
    <rect x="128" y="68" width="9.6" height="22" fill="#1169ff"/>
    <rect x="137.6" y="68" width="9.6" height="22" fill="#136cff"/>
    <rect x="147.2" y="68" width="9.6" height="22" fill="#156fff"/>
    <rect x="166.4" y="68" width="9.6" height="22" fill="#1974ff"/>
    <rect x="176" y="68" width="9.6" height="22" fill="#1b76ff"/>
    <rect x="185.6" y="68" width="9.6" height="22" fill="#1d79ff"/>
    <rect x="195.2" y="68" width="9.6" height="11" fill="#1f7cff"/>
    <rect x="204.8" y="68" width="9.6" height="11" fill="#217eff"/>
    <rect x="214.4" y="68" width="9.6" height="22" fill="#2381ff"/>
    <rect x="224" y="68" width="9.6" height="22" fill="#2583ff"/>
    <rect x="233.6" y="68" width="9.6" height="22" fill="#2786ff"/>
    <text x="300.8" y="84" textLength="9.6" lengthAdjust="spacingAndGlyphs" xml:space="preserve" fill="#3e9aff" font-weight="600">▓</text>
    <rect x="310.4" y="68" width="9.6" height="22" fill="#429dff"/>
    <text x="320" y="84" textLength="9.6" lengthAdjust="spacingAndGlyphs" xml:space="preserve" fill="#47a0ff" font-weight="600">▓</text>
    <rect x="339.2" y="68" width="9.6" height="22" fill="#51a7ff"/>
    <rect x="348.8" y="68" width="9.6" height="22" fill="#56aaff"/>
    <rect x="358.4" y="68" width="9.6" height="22" fill="#5badff"/>
    <rect x="368" y="68" width="9.6" height="11" fill="#60b0ff"/>
    <rect x="377.6" y="68" width="9.6" height="11" fill="#64b3ff"/>
    <rect x="387.2" y="68" width="9.6" height="22" fill="#69b7ff"/>
    <rect x="396.8" y="68" width="9.6" height="22" fill="#6ebaff"/>
    <text x="406.4" y="84" textLength="9.6" lengthAdjust="spacingAndGlyphs" xml:space="preserve" fill="#73bdff" font-weight="600">▓</text>
    <rect x="425.6" y="68" width="9.6" height="22" fill="#7dc3ff"/>
    <rect x="435.2" y="68" width="9.6" height="22" fill="#82c6ff"/>
    <rect x="444.8" y="68" width="9.6" height="22" fill="#86caff"/>
    <rect x="454.4" y="68" width="9.6" height="11" fill="#8bcdff"/>
    <rect x="464" y="68" width="9.6" height="11" fill="#90d0ff"/>
    <rect x="473.6" y="68" width="9.6" height="22" fill="#95d3ff"/>
    <rect x="483.2" y="68" width="9.6" height="22" fill="#9ad6ff"/>
    <rect x="512" y="68" width="9.6" height="22" fill="#a8dcff"/>
    <rect x="521.6" y="68" width="9.6" height="22" fill="#acdeff"/>
    <rect x="531.2" y="68" width="9.6" height="22" fill="#b1e0ff"/>
    <rect x="550.4" y="68" width="9.6" height="11" fill="#bae3ff"/>
    <rect x="560" y="68" width="9.6" height="11" fill="#bfe5ff"/>
    <rect x="569.6" y="68" width="9.6" height="22" fill="#c3e7ff"/>
    <rect x="579.2" y="68" width="9.6" height="22" fill="#c8e9ff"/>
    <rect x="588.8" y="68" width="9.6" height="22" fill="#ccebff"/>
    <rect x="598.4" y="68" width="9.6" height="11" fill="#d1edff"/>
    <rect x="608" y="68" width="9.6" height="11" fill="#d6eeff"/>
    <text x="627.2" y="84" textLength="9.6" lengthAdjust="spacingAndGlyphs" xml:space="preserve" fill="#dff2ff" font-weight="600">▓</text>
    <rect x="636.8" y="68" width="9.6" height="22" fill="#e3f4ff"/>
    <rect x="646.4" y="68" width="9.6" height="22" fill="#e8f6ff"/>
    <rect x="656" y="68" width="9.6" height="11" fill="#edf8ff"/>
    <rect x="665.6" y="68" width="9.6" height="11" fill="#f1f9ff"/>
    <text x="41.6" y="106" textLength="9.6" lengthAdjust="spacingAndGlyphs" xml:space="preserve" fill="#0052ff" font-weight="600">▓</text>
    <rect x="51.2" y="90" width="9.6" height="22" fill="#0255ff"/>
    <text x="60.8" y="106" textLength="9.6" lengthAdjust="spacingAndGlyphs" xml:space="preserve" fill="#0457ff" font-weight="600">▓</text>
    <rect x="89.6" y="90" width="9.6" height="22" fill="#0a5fff"/>
    <rect x="99.2" y="90" width="9.6" height="22" fill="#0c62ff"/>
    <text x="108.8" y="106" textLength="9.6" lengthAdjust="spacingAndGlyphs" xml:space="preserve" fill="#0e64ff" font-weight="600">▓</text>
    <text x="128" y="106" textLength="9.6" lengthAdjust="spacingAndGlyphs" xml:space="preserve" fill="#1169ff" font-weight="600">▓</text>
    <rect x="137.6" y="90" width="9.6" height="22" fill="#136cff"/>
    <text x="147.2" y="106" textLength="9.6" lengthAdjust="spacingAndGlyphs" xml:space="preserve" fill="#156fff" font-weight="600">▓</text>
    <text x="166.4" y="106" textLength="9.6" lengthAdjust="spacingAndGlyphs" xml:space="preserve" fill="#1974ff" font-weight="600">▓</text>
    <rect x="176" y="90" width="9.6" height="22" fill="#1b76ff"/>
    <text x="185.6" y="106" textLength="9.6" lengthAdjust="spacingAndGlyphs" xml:space="preserve" fill="#1d79ff" font-weight="600">▓</text>
    <rect x="214.4" y="90" width="9.6" height="22" fill="#2381ff"/>
    <rect x="224" y="90" width="9.6" height="22" fill="#2583ff"/>
    <text x="233.6" y="106" textLength="9.6" lengthAdjust="spacingAndGlyphs" xml:space="preserve" fill="#2786ff" font-weight="600">▓</text>
    <text x="252.8" y="106" textLength="9.6" lengthAdjust="spacingAndGlyphs" xml:space="preserve" fill="#2b8bff" font-weight="600">▓</text>
    <rect x="262.4" y="90" width="9.6" height="22" fill="#2c8eff"/>
    <text x="272" y="106" textLength="9.6" lengthAdjust="spacingAndGlyphs" xml:space="preserve" fill="#2f91ff" font-weight="600">▓</text>
    <rect x="300.8" y="90" width="9.6" height="22" fill="#3e9aff"/>
    <rect x="310.4" y="90" width="9.6" height="22" fill="#429dff"/>
    <rect x="320" y="90" width="9.6" height="22" fill="#47a0ff"/>
    <text x="339.2" y="106" textLength="9.6" lengthAdjust="spacingAndGlyphs" xml:space="preserve" fill="#51a7ff" font-weight="600">▓</text>
    <rect x="348.8" y="90" width="9.6" height="22" fill="#56aaff"/>
    <text x="358.4" y="106" textLength="9.6" lengthAdjust="spacingAndGlyphs" xml:space="preserve" fill="#5badff" font-weight="600">▓</text>
    <rect x="377.6" y="90" width="9.6" height="11" fill="#64b3ff"/>
    <rect x="387.2" y="90" width="9.6" height="22" fill="#69b7ff"/>
    <rect x="396.8" y="90" width="9.6" height="22" fill="#6ebaff"/>
    <rect x="406.4" y="90" width="9.6" height="22" fill="#73bdff"/>
    <text x="425.6" y="106" textLength="9.6" lengthAdjust="spacingAndGlyphs" xml:space="preserve" fill="#7dc3ff" font-weight="600">▓</text>
    <rect x="435.2" y="90" width="9.6" height="22" fill="#82c6ff"/>
    <text x="444.8" y="106" textLength="9.6" lengthAdjust="spacingAndGlyphs" xml:space="preserve" fill="#86caff" font-weight="600">▓</text>
    <rect x="464" y="90" width="9.6" height="11" fill="#90d0ff"/>
    <rect x="473.6" y="90" width="9.6" height="22" fill="#95d3ff"/>
    <rect x="483.2" y="90" width="9.6" height="22" fill="#9ad6ff"/>
    <text x="492.8" y="106" textLength="9.6" lengthAdjust="spacingAndGlyphs" xml:space="preserve" fill="#9ed8ff" font-weight="600">▓</text>
    <text x="512" y="106" textLength="9.6" lengthAdjust="spacingAndGlyphs" xml:space="preserve" fill="#a8dcff" font-weight="600">▓</text>
    <rect x="521.6" y="90" width="9.6" height="22" fill="#acdeff"/>
    <text x="531.2" y="106" textLength="9.6" lengthAdjust="spacingAndGlyphs" xml:space="preserve" fill="#b1e0ff" font-weight="600">▓</text>
    <text x="569.6" y="106" textLength="9.6" lengthAdjust="spacingAndGlyphs" xml:space="preserve" fill="#c3e7ff" font-weight="600">▓</text>
    <rect x="579.2" y="90" width="9.6" height="22" fill="#c8e9ff"/>
    <rect x="588.8" y="90" width="9.6" height="22" fill="#ccebff"/>
    <rect x="627.2" y="90" width="9.6" height="11" fill="#dff2ff"/>
    <rect x="636.8" y="90" width="9.6" height="11" fill="#e3f4ff"/>
    <rect x="646.4" y="90" width="9.6" height="11" fill="#e8f6ff"/>
    <rect x="656" y="90" width="9.6" height="11" fill="#edf8ff"/>
    <rect x="665.6" y="90" width="9.6" height="11" fill="#f1f9ff"/>
    <rect x="675.2" y="90" width="9.6" height="22" fill="#f6fbff"/>
    <rect x="684.8" y="90" width="9.6" height="22" fill="#fafdff"/>
    <rect x="694.4" y="90" width="9.6" height="22" fill="#ffffff"/>
    <rect x="41.6" y="112" width="9.6" height="22" fill="#0052ff"/>
    <rect x="51.2" y="112" width="9.6" height="22" fill="#0255ff"/>
    <rect x="60.8" y="112" width="9.6" height="22" fill="#0457ff"/>
    <text x="89.6" y="128" textLength="9.6" lengthAdjust="spacingAndGlyphs" xml:space="preserve" fill="#0a5fff" font-weight="600">▓</text>
    <rect x="99.2" y="112" width="9.6" height="22" fill="#0c62ff"/>
    <rect x="108.8" y="112" width="9.6" height="22" fill="#0e64ff"/>
    <rect x="128" y="112" width="9.6" height="22" fill="#1169ff"/>
    <rect x="137.6" y="112" width="9.6" height="22" fill="#136cff"/>
    <rect x="147.2" y="112" width="9.6" height="22" fill="#156fff"/>
    <rect x="166.4" y="112" width="9.6" height="22" fill="#1974ff"/>
    <rect x="176" y="112" width="9.6" height="22" fill="#1b76ff"/>
    <rect x="185.6" y="112" width="9.6" height="22" fill="#1d79ff"/>
    <text x="214.4" y="128" textLength="9.6" lengthAdjust="spacingAndGlyphs" xml:space="preserve" fill="#2381ff" font-weight="600">▓</text>
    <rect x="224" y="112" width="9.6" height="22" fill="#2583ff"/>
    <rect x="233.6" y="112" width="9.6" height="22" fill="#2786ff"/>
    <rect x="252.8" y="112" width="9.6" height="22" fill="#2b8bff"/>
    <rect x="262.4" y="112" width="9.6" height="22" fill="#2c8eff"/>
    <rect x="272" y="112" width="9.6" height="22" fill="#2f91ff"/>
    <rect x="281.6" y="123" width="9.6" height="11" fill="#3494ff"/>
    <rect x="291.2" y="123" width="9.6" height="11" fill="#3997ff"/>
    <rect x="300.8" y="112" width="9.6" height="22" fill="#3e9aff"/>
    <rect x="310.4" y="112" width="9.6" height="22" fill="#429dff"/>
    <text x="320" y="128" textLength="9.6" lengthAdjust="spacingAndGlyphs" xml:space="preserve" fill="#47a0ff" font-weight="600">▓</text>
    <rect x="339.2" y="112" width="9.6" height="22" fill="#51a7ff"/>
    <rect x="348.8" y="112" width="9.6" height="22" fill="#56aaff"/>
    <rect x="358.4" y="112" width="9.6" height="22" fill="#5badff"/>
    <rect x="387.2" y="112" width="9.6" height="22" fill="#69b7ff"/>
    <rect x="396.8" y="112" width="9.6" height="22" fill="#6ebaff"/>
    <text x="406.4" y="128" textLength="9.6" lengthAdjust="spacingAndGlyphs" xml:space="preserve" fill="#73bdff" font-weight="600">▓</text>
    <rect x="425.6" y="112" width="9.6" height="22" fill="#7dc3ff"/>
    <rect x="435.2" y="112" width="9.6" height="22" fill="#82c6ff"/>
    <rect x="444.8" y="112" width="9.6" height="22" fill="#86caff"/>
    <rect x="464" y="123" width="9.6" height="11" fill="#90d0ff"/>
    <rect x="473.6" y="112" width="9.6" height="22" fill="#95d3ff"/>
    <rect x="483.2" y="112" width="9.6" height="22" fill="#9ad6ff"/>
    <rect x="492.8" y="112" width="9.6" height="22" fill="#9ed8ff"/>
    <rect x="512" y="112" width="9.6" height="22" fill="#a8dcff"/>
    <rect x="521.6" y="112" width="9.6" height="22" fill="#acdeff"/>
    <rect x="531.2" y="112" width="9.6" height="22" fill="#b1e0ff"/>
    <rect x="569.6" y="112" width="9.6" height="22" fill="#c3e7ff"/>
    <rect x="579.2" y="112" width="9.6" height="22" fill="#c8e9ff"/>
    <text x="588.8" y="128" textLength="9.6" lengthAdjust="spacingAndGlyphs" xml:space="preserve" fill="#ccebff" font-weight="600">▓</text>
    <text x="627.2" y="128" textLength="9.6" lengthAdjust="spacingAndGlyphs" xml:space="preserve" fill="#dff2ff" font-weight="600">▓</text>
    <rect x="636.8" y="112" width="9.6" height="22" fill="#e3f4ff"/>
    <rect x="646.4" y="112" width="9.6" height="22" fill="#e8f6ff"/>
    <rect x="656" y="123" width="9.6" height="11" fill="#edf8ff"/>
    <rect x="665.6" y="123" width="9.6" height="11" fill="#f1f9ff"/>
    <rect x="675.2" y="112" width="9.6" height="22" fill="#f6fbff"/>
    <rect x="684.8" y="112" width="9.6" height="22" fill="#fafdff"/>
    <text x="694.4" y="128" textLength="9.6" lengthAdjust="spacingAndGlyphs" xml:space="preserve" fill="#ffffff" font-weight="600">▓</text>
    <text x="41.6" y="150" textLength="748.8" lengthAdjust="spacingAndGlyphs" xml:space="preserve" fill="#334155">──────────────────────────────────────────────────────────────────────────────</text>
    <rect x="41.6" y="178" width="4.8" height="22" fill="#334155"/>
    <text x="60.8" y="194" textLength="28.8" lengthAdjust="spacingAndGlyphs" xml:space="preserve" fill="#94a3b8">All</text>
    <text x="204.8" y="194" textLength="19.2" lengthAdjust="spacingAndGlyphs" xml:space="preserve" fill="#334155">╭─</text>
    <text x="233.6" y="194" textLength="57.6" lengthAdjust="spacingAndGlyphs" xml:space="preserve" fill="#334155" font-weight="600">Search</text>
    <text x="300.8" y="194" textLength="489.6" lengthAdjust="spacingAndGlyphs" xml:space="preserve" fill="#334155">──────────────────────────────────────────────────╮</text>
    <text x="60.8" y="216" textLength="48" lengthAdjust="spacingAndGlyphs" xml:space="preserve" fill-opacity="0.55">Games</text>
    <rect x="208.9" y="200" width="1.4" height="22" fill="#334155"/>
    <text x="224" y="216" textLength="9.6" lengthAdjust="spacingAndGlyphs" xml:space="preserve" fill="#60a5fa">❯</text>
    <text x="243.2" y="216" textLength="288" lengthAdjust="spacingAndGlyphs" xml:space="preserve" fill-opacity="0.55">Search or paste a magnet link…</text>
    <rect x="784.9" y="200" width="1.4" height="22" fill="#334155"/>
    <text x="60.8" y="238" textLength="57.6" lengthAdjust="spacingAndGlyphs" xml:space="preserve" fill-opacity="0.55">Movies</text>
    <text x="204.8" y="238" textLength="585.6" lengthAdjust="spacingAndGlyphs" xml:space="preserve" fill="#334155">╰───────────────────────────────────────────────────────────╯</text>
    <text x="60.8" y="260" textLength="19.2" lengthAdjust="spacingAndGlyphs" xml:space="preserve" fill-opacity="0.55">TV</text>
    <text x="60.8" y="282" textLength="48" lengthAdjust="spacingAndGlyphs" xml:space="preserve" fill-opacity="0.55">Anime</text>
    <text x="204.8" y="282" textLength="19.2" lengthAdjust="spacingAndGlyphs" xml:space="preserve" fill="#60a5fa">╭─</text>
    <text x="233.6" y="282" textLength="96" lengthAdjust="spacingAndGlyphs" xml:space="preserve" fill="#60a5fa" font-weight="600">Latest (5)</text>
    <text x="339.2" y="282" textLength="451.2" lengthAdjust="spacingAndGlyphs" xml:space="preserve" fill="#60a5fa">──────────────────────────────────────────────╮</text>
    <text x="60.8" y="304" textLength="86.4" lengthAdjust="spacingAndGlyphs" xml:space="preserve" fill-opacity="0.55">Magazines</text>
    <rect x="208.9" y="288" width="1.4" height="22" fill="#60a5fa"/>
    <text x="224" y="304" textLength="240" lengthAdjust="spacingAndGlyphs" xml:space="preserve" fill-opacity="0.55">newest across all sources</text>
    <rect x="784.9" y="288" width="1.4" height="22" fill="#60a5fa"/>
    <text x="60.8" y="326" textLength="115.2" lengthAdjust="spacingAndGlyphs" xml:space="preserve" fill-opacity="0.55">Applications</text>
    <rect x="208.9" y="310" width="1.4" height="22" fill="#60a5fa"/>
    <rect x="784.9" y="310" width="1.4" height="22" fill="#60a5fa"/>
    <text x="60.8" y="348" textLength="48" lengthAdjust="spacingAndGlyphs" xml:space="preserve" fill-opacity="0.55">Music</text>
    <rect x="208.9" y="332" width="1.4" height="22" fill="#60a5fa"/>
    <text x="252.8" y="348" textLength="9.6" lengthAdjust="spacingAndGlyphs" xml:space="preserve" fill-opacity="0.55" font-weight="600">#</text>
    <text x="272" y="348" textLength="38.4" lengthAdjust="spacingAndGlyphs" xml:space="preserve" fill-opacity="0.55" font-weight="600">Name</text>
    <text x="588.8" y="348" textLength="38.4" lengthAdjust="spacingAndGlyphs" xml:space="preserve" fill-opacity="0.55" font-weight="600">Size</text>
    <text x="646.4" y="348" textLength="76.8" lengthAdjust="spacingAndGlyphs" xml:space="preserve" fill-opacity="0.55" font-weight="600">Seed:Lch</text>
    <text x="742.4" y="348" textLength="28.8" lengthAdjust="spacingAndGlyphs" xml:space="preserve" fill-opacity="0.55" font-weight="600">Src</text>
    <rect x="784.9" y="332" width="1.4" height="22" fill="#60a5fa"/>
    <text x="60.8" y="370" textLength="48" lengthAdjust="spacingAndGlyphs" xml:space="preserve" fill-opacity="0.55">Audio</text>
    <rect x="208.9" y="354" width="1.4" height="22" fill="#60a5fa"/>
    <text x="224" y="370" textLength="9.6" lengthAdjust="spacingAndGlyphs" xml:space="preserve" fill="#60a5fa">❯</text>
    <text x="252.8" y="370" textLength="9.6" lengthAdjust="spacingAndGlyphs" xml:space="preserve" fill-opacity="0.55">1</text>
    <text x="272" y="370" textLength="249.6" lengthAdjust="spacingAndGlyphs" xml:space="preserve" fill="#60a5fa" font-weight="600">Oppenheimer (2023) [1080p…</text>
    <text x="560" y="370" textLength="67.2" lengthAdjust="spacingAndGlyphs" xml:space="preserve" fill-opacity="0.55">1.96 GB</text>
    <text x="656" y="370" textLength="67.2" lengthAdjust="spacingAndGlyphs" xml:space="preserve" fill="#34d399">1240:88</text>
    <text x="742.4" y="370" textLength="28.8" lengthAdjust="spacingAndGlyphs" xml:space="preserve" fill="#34d399">YTS</text>
    <rect x="784.9" y="354" width="1.4" height="22" fill="#60a5fa"/>
    <text x="60.8" y="392" textLength="38.4" lengthAdjust="spacingAndGlyphs" xml:space="preserve" fill-opacity="0.55">ROMs</text>
    <rect x="208.9" y="376" width="1.4" height="22" fill="#60a5fa"/>
    <text x="252.8" y="392" textLength="9.6" lengthAdjust="spacingAndGlyphs" xml:space="preserve" fill-opacity="0.55">2</text>
    <text x="272" y="392" textLength="249.6" lengthAdjust="spacingAndGlyphs" xml:space="preserve" fill-opacity="0.55">Dune: Part Two (2024) [21…</text>
    <text x="560" y="392" textLength="67.2" lengthAdjust="spacingAndGlyphs" xml:space="preserve" fill-opacity="0.55">7.82 GB</text>
    <text x="665.6" y="392" textLength="57.6" lengthAdjust="spacingAndGlyphs" xml:space="preserve" fill="#34d399">910:41</text>
    <text x="742.4" y="392" textLength="28.8" lengthAdjust="spacingAndGlyphs" xml:space="preserve" fill="#34d399" fill-opacity="0.55">YTS</text>
    <rect x="784.9" y="376" width="1.4" height="22" fill="#60a5fa"/>
    <text x="60.8" y="414" textLength="48" lengthAdjust="spacingAndGlyphs" xml:space="preserve" fill-opacity="0.55">Adult</text>
    <rect x="208.9" y="398" width="1.4" height="22" fill="#60a5fa"/>
    <text x="252.8" y="414" textLength="9.6" lengthAdjust="spacingAndGlyphs" xml:space="preserve" fill-opacity="0.55">3</text>
    <text x="272" y="414" textLength="249.6" lengthAdjust="spacingAndGlyphs" xml:space="preserve" fill-opacity="0.55">Breaking Bad S05E14 1080p…</text>
    <text x="560" y="414" textLength="67.2" lengthAdjust="spacingAndGlyphs" xml:space="preserve" fill-opacity="0.55">1.49 GB</text>
    <text x="665.6" y="414" textLength="57.6" lengthAdjust="spacingAndGlyphs" xml:space="preserve" fill="#34d399">540:31</text>
    <text x="732.8" y="414" textLength="38.4" lengthAdjust="spacingAndGlyphs" xml:space="preserve" fill="#fbbf24" fill-opacity="0.55">EZTV</text>
    <rect x="784.9" y="398" width="1.4" height="22" fill="#60a5fa"/>
    <rect x="208.9" y="420" width="1.4" height="22" fill="#60a5fa"/>
    <text x="252.8" y="436" textLength="9.6" lengthAdjust="spacingAndGlyphs" xml:space="preserve" fill-opacity="0.55">4</text>
    <text x="272" y="436" textLength="249.6" lengthAdjust="spacingAndGlyphs" xml:space="preserve" fill-opacity="0.55">[Erai-raws] Jujutsu Kaise…</text>
    <text x="560" y="436" textLength="67.2" lengthAdjust="spacingAndGlyphs" xml:space="preserve" fill-opacity="0.55">1.21 GB</text>
    <text x="665.6" y="436" textLength="57.6" lengthAdjust="spacingAndGlyphs" xml:space="preserve" fill="#34d399">320:12</text>
    <text x="732.8" y="436" textLength="38.4" lengthAdjust="spacingAndGlyphs" xml:space="preserve" fill="#ffffff" fill-opacity="0.55">NYAA</text>
    <rect x="784.9" y="420" width="1.4" height="22" fill="#60a5fa"/>
    <text x="60.8" y="458" textLength="86.4" lengthAdjust="spacingAndGlyphs" xml:space="preserve" fill-opacity="0.55">Downloads</text>
    <rect x="208.9" y="442" width="1.4" height="22" fill="#60a5fa"/>
    <text x="252.8" y="458" textLength="9.6" lengthAdjust="spacingAndGlyphs" xml:space="preserve" fill-opacity="0.55">5</text>
    <text x="272" y="458" textLength="192" lengthAdjust="spacingAndGlyphs" xml:space="preserve" fill-opacity="0.55">Frieren - 28 [1080p]</text>
    <text x="560" y="458" textLength="67.2" lengthAdjust="spacingAndGlyphs" xml:space="preserve" fill-opacity="0.55">1.30 GB</text>
    <text x="713.6" y="458" textLength="9.6" lengthAdjust="spacingAndGlyphs" xml:space="preserve" fill-opacity="0.55">-</text>
    <text x="742.4" y="458" textLength="28.8" lengthAdjust="spacingAndGlyphs" xml:space="preserve" fill="#b9a7e6" fill-opacity="0.55">SUB</text>
    <rect x="784.9" y="442" width="1.4" height="22" fill="#60a5fa"/>
    <text x="60.8" y="480" textLength="67.2" lengthAdjust="spacingAndGlyphs" xml:space="preserve" fill-opacity="0.55">Seeding</text>
    <text x="204.8" y="480" textLength="585.6" lengthAdjust="spacingAndGlyphs" xml:space="preserve" fill="#60a5fa">╰───────────────────────────────────────────────────────────╯</text>
    <text x="41.6" y="502" textLength="38.4" lengthAdjust="spacingAndGlyphs" xml:space="preserve" fill="#94a3b8">↑↓←→</text>
    <text x="89.6" y="502" textLength="38.4" lengthAdjust="spacingAndGlyphs" xml:space="preserve" fill-opacity="0.55">Move</text>
    <text x="156.8" y="502" textLength="9.6" lengthAdjust="spacingAndGlyphs" xml:space="preserve" fill="#94a3b8">d</text>
    <text x="176" y="502" textLength="76.8" lengthAdjust="spacingAndGlyphs" xml:space="preserve" fill-opacity="0.55">Download</text>
    <text x="281.6" y="502" textLength="9.6" lengthAdjust="spacingAndGlyphs" xml:space="preserve" fill="#94a3b8">y</text>
    <text x="300.8" y="502" textLength="38.4" lengthAdjust="spacingAndGlyphs" xml:space="preserve" fill-opacity="0.55">Copy</text>
    <text x="368" y="502" textLength="9.6" lengthAdjust="spacingAndGlyphs" xml:space="preserve" fill="#94a3b8">s</text>
    <text x="387.2" y="502" textLength="38.4" lengthAdjust="spacingAndGlyphs" xml:space="preserve" fill-opacity="0.55">Sort</text>
    <text x="454.4" y="502" textLength="9.6" lengthAdjust="spacingAndGlyphs" xml:space="preserve" fill="#94a3b8">/</text>
    <text x="473.6" y="502" textLength="57.6" lengthAdjust="spacingAndGlyphs" xml:space="preserve" fill-opacity="0.55">Search</text>
    <text x="560" y="502" textLength="28.8" lengthAdjust="spacingAndGlyphs" xml:space="preserve" fill="#94a3b8">tab</text>
    <text x="598.4" y="502" textLength="57.6" lengthAdjust="spacingAndGlyphs" xml:space="preserve" fill-opacity="0.55">Switch</text>
    <text x="684.8" y="502" textLength="9.6" lengthAdjust="spacingAndGlyphs" xml:space="preserve" fill="#94a3b8">?</text>
    <text x="704" y="502" textLength="38.4" lengthAdjust="spacingAndGlyphs" xml:space="preserve" fill-opacity="0.55">Keys</text>
  </g>
</svg>